<?xml version="1.0" encoding="utf-8"?>
<!-- Generator: Adobe Illustrator 23.0.1, SVG Export Plug-In . SVG Version: 6.00 Build 0)  -->
<svg version="1.1" id="Layer_1" xmlns="http://www.w3.org/2000/svg" xmlns:xlink="http://www.w3.org/1999/xlink" x="0px" y="0px"
	 viewBox="0 0 24 24" style="enable-background:new 0 0 24 24;" xml:space="preserve">
<style type="text/css">
	.st0{fill:#6F6F6F;}
</style>
<path class="st0" d="M17.9,24c-1.4,0-5.8-0.5-11.7-6.1C0.5,12.5,0,6.8,0,6.1c0-0.8,0.1-3.8,3.9-5.8C4.4,0,5.6-0.2,6,0.3
	c0.2,0.2,3.1,5.1,3.2,5.1c0.1,0.2,0.2,0.5,0.2,0.7c0,0.4-0.2,0.7-0.6,1.2c-0.3,0.3-0.7,0.7-1.1,1C7.3,8.5,7,8.7,6.7,9
	C6.4,9.3,6.4,9.4,6.4,9.4c0,0.1,0.2,1.8,3.4,4.7c3.3,2.9,4.7,3.5,4.7,3.5c0.1,0,0.2,0,0.2,0c0,0,0.1,0,0.4-0.3
	c0.1-0.1,0.4-0.5,0.7-0.9c0.5-0.6,0.8-1,1-1.2c0.7-0.7,1.3-0.7,1.8-0.4c0,0,5,2.9,5.2,3.1c0.1,0.1,0.5,0.5-0.2,2.3l0,0
	C22.2,23.6,19.2,24,17.9,24C17.9,24,17.9,24,17.9,24z M5.2,1C5,1,4.6,1.1,4.4,1.2C1.2,2.9,1,5.2,1,6.1c0,0.6,0.5,6,5.8,11.1
	c6,5.6,10.3,5.9,11.1,5.8c1.3,0,3.6-0.4,4.7-3c0.2-0.5,0.4-1.1,0.4-1.3c-0.7-0.4-4.6-2.7-4.8-2.8c-0.1,0-0.2-0.1-0.2-0.1
	c0,0-0.1,0-0.5,0.3c-0.1,0.1-0.5,0.6-0.9,1c-0.3,0.4-0.6,0.8-0.8,1c-0.6,0.6-1,0.7-1.6,0.5c-0.3-0.1-2-1.1-5-3.7
	c-3.4-3-3.8-4.9-3.8-5.5c0-0.4,0.2-0.7,0.6-1.1C6.3,8,6.7,7.7,7.1,7.4C7.4,7.1,7.7,6.9,8,6.6c0.3-0.3,0.3-0.5,0.3-0.5
	c0-0.1,0-0.2-0.1-0.2C8.2,5.6,5.8,1.7,5.3,1C5.3,1,5.3,1,5.2,1z"/>
</svg>
