<svg xmlns="http://www.w3.org/2000/svg" xmlns:xlink="http://www.w3.org/1999/xlink" version="1.1" width="1000" height="1000" viewBox="0 0 1000 1000" xml:space="preserve">
<defs>
</defs>
<rect x="0" y="0" width="100%" height="100%" fill="rgba(255,255,255,0)"/>
<g transform="matrix(1.0855 0 0 1.0855 489.5543 489.5543)" id="257059">
<g style="" vector-effect="non-scaling-stroke">
		<g transform="matrix(3.5511 0 0 3.5511 -0.0046 46.1606)">
<path style="stroke: rgb(97,97,98); stroke-width: 5; stroke-dasharray: none; stroke-linecap: butt; stroke-dashoffset: 0; stroke-linejoin: miter; stroke-miterlimit: 4; is-custom-font: none; font-file-url: none; fill: rgb(255,255,255); fill-rule: nonzero; opacity: 1;" transform=" translate(-128, -141)" d="M 3.5 29.5 H 252.5 V 240.5 C 252.5 247.127 247.127 252.5 240.5 252.5 H 15.5 C 8.87259 252.5 3.5 247.127 3.5 240.5 V 29.5 Z" stroke-linecap="round"/>
</g>
		<g transform="matrix(3.5511 0 0 3.5511 61.6638 43.2912)">
<path style="stroke: none; stroke-width: 1; stroke-dasharray: none; stroke-linecap: butt; stroke-dashoffset: 0; stroke-linejoin: miter; stroke-miterlimit: 4; is-custom-font: none; font-file-url: none; fill: rgb(245,119,41); fill-rule: evenodd; opacity: 1;" transform=" translate(-145.3653, -140.1917)" d="M 163.705 50.9544 C 146.713 53.7669 142.729 72.9856 137.573 95.134 C 136.802 100.439 114.943 134.268 112.143 140.134 C 104.824 151.868 78.7017 170.454 75.1115 175.173 C 84.3869 181.307 96.7552 192.558 102.065 201.775 C 104.755 206.444 115.052 225.237 117.182 229.431 C 129.135 223.103 151.145 200.693 159.018 189.822 C 163.632 183.451 176.713 172.712 185.619 170.251 C 185.619 170.251 196.869 169.431 215.619 179.509 C 208.172 157.886 192.819 110.174 189.369 97.7122 C 189.369 97.7122 175.307 50.6027 163.705 50.9544 Z" stroke-linecap="round"/>
</g>
		<g transform="matrix(3.5511 0 0 3.5511 -132.4594 -24.5046)">
<path style="stroke: none; stroke-width: 1; stroke-dasharray: none; stroke-linecap: butt; stroke-dashoffset: 0; stroke-linejoin: miter; stroke-miterlimit: 4; is-custom-font: none; font-file-url: none; fill: rgb(6,140,252); fill-rule: nonzero; opacity: 1;" transform=" translate(-90.7, -121.1001)" d="M 72.7 175.3 C 72.7 175.3 98.5985 153.497 103.9 148.9 L 83.1 133.7 L 37.9 152.5 L 72.7 175.3 Z M 83.5 132.9 L 104.3 148.5 C 108.091 143.465 127.433 114.469 133.9 104.1 C 137.421 98.455 140.7 86.5001 140.7 86.5001 C 141.5 79.3001 143.5 66.9001 143.5 66.9001 C 141.553 68.5691 135.354 78.5093 131.487 84.7113 C 129.793 87.4278 128.546 89.4271 128.3 89.7001 C 120.481 98.9153 110.713 105.986 104.847 110.232 C 102.31 112.068 100.504 113.376 99.9 114.1 C 97.8744 116.793 86.712 129.536 83.5 132.9 Z" stroke-linecap="round"/>
</g>
		<g transform="matrix(3.5511 0 0 3.5511 -132.4594 -24.5046)">
<path style="stroke: rgb(6,140,252); stroke-width: 1; stroke-dasharray: none; stroke-linecap: butt; stroke-dashoffset: 0; stroke-linejoin: miter; stroke-miterlimit: 4; is-custom-font: none; font-file-url: none; fill: none; fill-rule: nonzero; opacity: 1;" transform=" translate(-90.7, -121.1001)" d="M 72.7 175.3 C 72.7 175.3 98.5985 153.497 103.9 148.9 L 83.1 133.7 L 37.9 152.5 L 72.7 175.3 Z M 83.5 132.9 L 104.3 148.5 C 108.091 143.465 127.433 114.469 133.9 104.1 C 137.421 98.455 140.7 86.5001 140.7 86.5001 C 141.5 79.3001 143.5 66.9001 143.5 66.9001 C 141.553 68.5691 135.354 78.5093 131.487 84.7113 C 129.793 87.4278 128.546 89.4271 128.3 89.7001 C 120.481 98.9153 110.713 105.986 104.847 110.232 C 102.31 112.068 100.504 113.376 99.9 114.1 C 97.8744 116.793 86.712 129.536 83.5 132.9 Z" stroke-linecap="round"/>
</g>
		<g transform="matrix(3.5511 0 0 3.5511 -1.7785 44.3865)">
<path style="stroke: none; stroke-width: 1; stroke-dasharray: none; stroke-linecap: butt; stroke-dashoffset: 0; stroke-linejoin: miter; stroke-miterlimit: 4; is-custom-font: none; font-file-url: none; fill: rgb(51,51,51); fill-rule: nonzero; opacity: 1;" transform=" translate(-127.5001, -140.5002)" d="M 37.5 152.81 L 36.6112 150.474 C 35.7451 150.803 35.1323 151.584 35.0188 152.504 C 34.9053 153.424 35.3098 154.331 36.0698 154.861 L 37.5 152.81 Z M 82.0749 133.781 L 83.8124 135.578 L 83.8124 135.578 L 82.0749 133.781 Z M 96.0849 118.615 L 98.0827 120.118 L 98.0827 120.118 L 96.0849 118.615 Z M 111.934 105.485 L 110.558 103.397 L 110.558 103.397 L 111.934 105.485 Z M 134.292 80.8648 L 136.473 82.087 L 136.473 82.087 L 134.292 80.8648 Z M 191.462 103.296 L 193.872 102.629 L 193.872 102.629 L 191.462 103.296 Z M 217.5 181.807 L 216.099 183.877 C 216.992 184.482 218.171 184.445 219.025 183.788 C 219.879 183.13 220.216 181.999 219.86 180.982 L 217.5 181.807 Z M 159.481 187.825 L 161.506 189.292 L 161.506 189.292 L 159.481 187.825 Z M 132.311 220.378 L 130.618 218.539 L 130.618 218.539 L 132.311 220.378 Z M 116.462 230.5 L 114.316 231.783 C 114.885 232.734 116.013 233.198 117.086 232.921 L 116.462 230.5 Z M 83.9151 182.901 L 82.536 184.986 L 82.536 184.986 L 83.9151 182.901 Z M 71.6172 172.999 C 70.5292 173.849 70.3365 175.421 71.1867 176.509 C 72.0369 177.596 73.608 177.789 74.6959 176.939 L 71.6172 172.999 Z M 106.836 144.878 L 104.846 143.364 L 104.846 143.364 L 106.836 144.878 Z M 140.373 85.3607 L 142.847 85.7199 L 142.847 85.7199 L 140.373 85.3607 Z M 38.3888 155.147 C 45.7215 152.358 56.2678 148.192 65.3005 144.419 C 69.8144 142.534 73.9715 140.738 77.1674 139.255 C 78.7628 138.516 80.1448 137.842 81.2221 137.267 C 82.1916 136.749 83.2093 136.161 83.8124 135.578 L 80.3374 131.983 C 80.3739 131.948 80.2998 132.021 79.9944 132.213 C 79.7205 132.385 79.3463 132.6 78.8664 132.856 C 77.9081 133.368 76.6218 133.997 75.0639 134.719 C 71.9534 136.162 67.8642 137.93 63.3734 139.806 C 54.397 143.555 43.9011 147.701 36.6112 150.474 L 38.3888 155.147 Z M 83.8124 135.578 C 86.9296 132.565 94.7489 124.55 98.0827 120.118 L 94.0871 117.112 C 91.0122 121.2 83.4466 128.978 80.3374 131.983 L 83.8124 135.578 Z M 98.0827 120.118 C 101.599 115.444 107.018 111.718 113.31 107.572 L 110.558 103.397 C 104.397 107.458 98.2113 111.63 94.0871 117.112 L 98.0827 120.118 Z M 113.31 107.572 C 116.709 105.332 121.56 100.609 125.924 95.773 C 130.302 90.9229 134.491 85.624 136.473 82.087 L 132.112 79.6426 C 130.414 82.671 126.538 87.6303 122.212 92.423 C 117.874 97.2297 113.385 101.534 110.558 103.397 L 113.31 107.572 Z M 136.473 82.087 C 138.302 78.8234 142.579 71.3685 147.712 64.753 C 150.282 61.4404 153.001 58.4263 155.668 56.2627 C 158.394 54.0508 160.734 53 162.594 53 V 48 C 159.006 48 155.544 49.9242 152.517 52.3798 C 149.431 54.8838 146.445 58.2299 143.762 61.6878 C 138.388 68.6134 133.962 76.3408 132.112 79.6426 L 136.473 82.087 Z M 162.594 53 C 163.203 53 164.043 53.2482 165.147 54.0206 C 166.247 54.7897 167.462 55.9783 168.761 57.5884 C 171.361 60.8091 174.047 65.3967 176.638 70.7106 C 181.811 81.3154 186.396 94.3652 189.053 103.963 L 193.872 102.629 C 191.152 92.8045 186.467 79.4563 181.132 68.5187 C 178.471 63.0613 175.593 58.0916 172.652 54.4479 C 171.181 52.6257 169.631 51.0552 168.013 49.9233 C 166.399 48.7947 164.569 48 162.594 48 V 53 Z M 189.053 103.963 C 193.382 119.6 208.265 162.969 215.14 182.632 L 219.86 180.982 C 212.961 161.252 198.146 118.068 193.872 102.629 L 189.053 103.963 Z M 218.901 179.736 C 215.989 177.766 211.173 174.831 206.109 172.376 C 201.165 169.98 195.542 167.818 191.179 167.818 V 172.818 C 194.289 172.818 198.995 174.485 203.929 176.876 C 208.742 179.209 213.351 182.018 216.099 183.877 L 218.901 179.736 Z M 191.179 167.818 C 185.997 167.818 179.655 169.614 173.643 172.752 C 167.606 175.902 161.69 180.513 157.456 186.359 L 161.506 189.292 C 165.197 184.195 170.46 180.053 175.956 177.184 C 181.477 174.303 187.021 172.818 191.179 172.818 V 167.818 Z M 157.456 186.359 C 149.553 197.271 136.37 213.244 130.618 218.539 L 134.004 222.218 C 140.139 216.571 153.56 200.263 161.506 189.292 L 157.456 186.359 Z M 130.618 218.539 C 124.782 223.912 119.489 227.138 115.838 228.079 L 117.086 232.921 C 121.926 231.673 127.954 227.788 134.004 222.218 L 130.618 218.539 Z M 118.608 229.217 C 116.823 226.23 114.921 222.472 112.77 218.238 C 110.637 214.037 108.283 209.416 105.645 204.837 C 100.399 195.731 93.864 186.483 85.2941 180.816 L 82.536 184.986 C 90.0982 189.988 96.1575 198.384 101.313 207.333 C 103.875 211.782 106.174 216.291 108.312 220.502 C 110.433 224.679 112.423 228.614 114.316 231.783 L 118.608 229.217 Z M 85.2941 180.816 C 70.5637 171.074 48.0745 157.138 38.9302 150.76 L 36.0698 154.861 C 45.2274 161.248 68.104 175.442 82.536 184.986 L 85.2941 180.816 Z M 74.6959 176.939 C 79.1563 173.453 86.1949 167.763 92.8369 162.004 C 99.4098 156.304 105.813 150.351 108.826 146.391 L 104.846 143.364 C 102.198 146.845 96.1959 152.473 89.5612 158.226 C 82.9957 163.92 76.0247 169.555 71.6172 172.999 L 74.6959 176.939 Z M 108.826 146.391 C 112.385 141.712 120.181 131.176 127.418 119.573 C 131.037 113.771 134.537 107.669 137.303 101.875 C 140.051 96.1169 142.153 90.504 142.847 85.7199 L 137.899 85.0015 C 137.312 89.0415 135.465 94.1177 132.791 99.7207 C 130.134 105.287 126.737 111.217 123.176 116.926 C 116.054 128.344 108.362 138.742 104.846 143.364 L 108.826 146.391 Z M 142.847 85.7199 C 145.229 69.3108 149.492 61.0291 154.888 56.9989 L 151.896 52.9929 C 144.839 58.2636 140.327 68.2757 137.899 85.0015 L 142.847 85.7199 Z M 81.0163 134.583 L 101.62 149.715 L 104.58 145.685 L 83.976 130.553 L 81.0163 134.583 Z" stroke-linecap="round"/>
</g>
		<g transform="matrix(3.5511 0 0 3.5511 -307.1741 -229.0488)">
<path style="stroke: rgb(97,97,98); stroke-width: 5; stroke-dasharray: none; stroke-linecap: round; stroke-dashoffset: 0; stroke-linejoin: round; stroke-miterlimit: 4; is-custom-font: none; font-file-url: none; fill: none; fill-rule: nonzero; opacity: 1;" transform=" translate(-41.5, -63.5)" d="M 23.5 49.5 L 40.5 63.5 L 23.5 77.5 M 42.5 49.5 L 59.5 63.5 L 42.5 77.5" stroke-linecap="round"/>
</g>
		<g transform="matrix(3.5511 0 0 3.5511 -0.0046 -395.9522)">
<path style="stroke: rgb(22,86,167); stroke-width: 5; stroke-dasharray: none; stroke-linecap: butt; stroke-dashoffset: 0; stroke-linejoin: miter; stroke-miterlimit: 4; is-custom-font: none; font-file-url: none; fill: rgb(180,222,255); fill-rule: nonzero; opacity: 1;" transform=" translate(-128, -16.5)" d="M 3.5 29.5 H 252.5 V 15.5 C 252.5 8.87259 247.127 3.5 240.5 3.5 H 15.5 C 8.87259 3.5 3.5 8.87258 3.5 15.5 L 3.5 29.5 Z" stroke-linecap="round"/>
</g>
</g>
</g>
</svg>