<svg width="24" height="24" viewBox="0 0 24 24" fill="none" xmlns="http://www.w3.org/2000/svg">
<g clip-path="url(#clip0_16_304)">
<rect width="24" height="24" fill="white"/>
<path fill-rule="evenodd" clip-rule="evenodd" d="M14.1752 1.83452C13.7808 2.28816 13.4202 3.1214 13.1957 4.66792C13.1059 5.28685 12.84 5.9855 12.5133 6.66987C12.1818 7.36448 11.7649 8.09053 11.3381 8.77484C10.4842 10.1438 9.5663 11.3842 9.14745 11.9348C8.76632 12.4359 7.98643 13.157 7.22463 13.8175C6.73333 14.2436 6.22401 14.666 5.78314 15.0229C5.9624 15.1397 6.13601 15.2535 6.30193 15.3632C7.38405 16.0788 8.18534 17.2272 8.80478 18.3024C9.11862 18.8472 9.39779 19.3955 9.64628 19.8848L9.65829 19.9084C9.78776 20.1634 9.90724 20.3987 10.0197 20.6119C10.3178 20.4424 10.6832 20.177 11.0879 19.8044C11.7278 19.2154 13.2464 17.3792 14.1649 16.111C14.7032 15.3677 15.4468 14.7915 16.1951 14.401C16.9367 14.014 17.7418 13.779 18.43 13.779C19 13.779 19.6742 14.0336 20.2311 14.2951C19.3623 11.7724 18.1909 8.30044 17.7883 6.8466C17.4835 5.74535 16.9567 4.24724 16.3665 3.03718C16.0699 2.42894 15.7722 1.92493 15.4968 1.58372C15.3591 1.4132 15.2448 1.30574 15.1588 1.24562C15.1178 1.21691 15.0923 1.20518 15.081 1.20081C14.998 1.20676 14.8209 1.26518 14.5442 1.48969C14.5088 1.51843 14.473 1.5488 14.4371 1.5807L14.4407 1.58563C14.4167 1.6036 14.3927 1.62265 14.3687 1.64285C14.3048 1.70238 14.2402 1.76646 14.1752 1.83452Z" fill="#F57729" stroke="#F57729" stroke-width="0.5"/>
<mask id="path-2-outside-1_16_304" maskUnits="userSpaceOnUse" x="0.00970459" y="3.58337" width="13" height="12" fill="black">
<rect fill="white" x="0.00970459" y="3.58337" width="13" height="12"/>
<path fill-rule="evenodd" clip-rule="evenodd" d="M4.54172 14.2229C5.03725 13.8285 5.6876 13.296 6.3061 12.7596C6.62158 12.4861 6.91875 12.22 7.17925 11.9758L5.80249 10.9777C5.79916 10.9795 5.79588 10.9813 5.79267 10.983C5.65726 11.0553 5.48821 11.1376 5.29903 11.2253C4.91918 11.4015 4.42864 11.6133 3.90014 11.8341C3.29323 12.0876 2.62842 12.3561 2.0097 12.6006C2.51147 12.9261 3.09171 13.2966 3.68963 13.6783C3.97183 13.8585 4.25803 14.0412 4.54172 14.2229ZM6.87262 10.0244L8.14049 10.9435C8.58281 10.356 9.39435 9.24336 10.1489 8.03372C10.5596 7.37512 10.9475 6.69739 11.2486 6.06658C11.3026 5.95335 12.1198 4.69058 12.1668 4.58337C12.074 4.69138 11.2131 5.95092 11.1187 6.0555C10.6073 6.62209 10.0119 7.20721 9.56852 7.49943C8.82392 7.99014 8.25423 8.38841 7.89365 8.8677C7.65733 9.18181 7.24735 9.63192 6.87262 10.0244Z"/>
</mask>
<path fill-rule="evenodd" clip-rule="evenodd" d="M4.54172 14.2229C5.03725 13.8285 5.6876 13.296 6.3061 12.7596C6.62158 12.4861 6.91875 12.22 7.17925 11.9758L5.80249 10.9777C5.79916 10.9795 5.79588 10.9813 5.79267 10.983C5.65726 11.0553 5.48821 11.1376 5.29903 11.2253C4.91918 11.4015 4.42864 11.6133 3.90014 11.8341C3.29323 12.0876 2.62842 12.3561 2.0097 12.6006C2.51147 12.9261 3.09171 13.2966 3.68963 13.6783C3.97183 13.8585 4.25803 14.0412 4.54172 14.2229ZM6.87262 10.0244L8.14049 10.9435C8.58281 10.356 9.39435 9.24336 10.1489 8.03372C10.5596 7.37512 10.9475 6.69739 11.2486 6.06658C11.3026 5.95335 12.1198 4.69058 12.1668 4.58337C12.074 4.69138 11.2131 5.95092 11.1187 6.0555C10.6073 6.62209 10.0119 7.20721 9.56852 7.49943C8.82392 7.99014 8.25423 8.38841 7.89365 8.8677C7.65733 9.18181 7.24735 9.63192 6.87262 10.0244Z" fill="#068CFC"/>
<path fill-rule="evenodd" clip-rule="evenodd" d="M4.54172 14.2229C5.03725 13.8285 5.6876 13.296 6.3061 12.7596C6.62158 12.4861 6.91875 12.22 7.17925 11.9758L5.80249 10.9777C5.79916 10.9795 5.79588 10.9813 5.79267 10.983C5.65726 11.0553 5.48821 11.1376 5.29903 11.2253C4.91918 11.4015 4.42864 11.6133 3.90014 11.8341C3.29323 12.0876 2.62842 12.3561 2.0097 12.6006C2.51147 12.9261 3.09171 13.2966 3.68963 13.6783C3.97183 13.8585 4.25803 14.0412 4.54172 14.2229ZM6.87262 10.0244L8.14049 10.9435C8.58281 10.356 9.39435 9.24336 10.1489 8.03372C10.5596 7.37512 10.9475 6.69739 11.2486 6.06658C11.3026 5.95335 12.1198 4.69058 12.1668 4.58337C12.074 4.69138 11.2131 5.95092 11.1187 6.0555C10.6073 6.62209 10.0119 7.20721 9.56852 7.49943C8.82392 7.99014 8.25423 8.38841 7.89365 8.8677C7.65733 9.18181 7.24735 9.63192 6.87262 10.0244Z" stroke="#068CFC" mask="url(#path-2-outside-1_16_304)"/>
<path d="M0.5 12.4362L0.322231 11.9689C0.149021 12.0348 0.0264604 12.191 0.00376407 12.375C-0.0189323 12.5589 0.0619589 12.7403 0.213955 12.8463L0.5 12.4362ZM5.7004 10.2161L6.0479 10.5756L6.0479 10.5756L5.7004 10.2161ZM7.3349 8.44679L7.73446 8.74739L7.73446 8.74739L7.3349 8.44679ZM9.18396 6.91487L8.90882 6.49738L8.90882 6.49738L9.18396 6.91487ZM11.7925 4.04256L12.2286 4.287L12.2286 4.287L11.7925 4.04256ZM18.4623 6.65955L18.9441 6.52614L18.9441 6.52614L18.4623 6.65955ZM21.5 15.8191L21.2198 16.2333C21.3984 16.3541 21.6342 16.3468 21.805 16.2153C21.9758 16.0838 22.0431 15.8576 21.972 15.6541L21.5 15.8191ZM14.7311 16.5213L15.1361 16.8145L15.1361 16.8145L14.7311 16.5213ZM11.5613 20.3191L11.2227 19.9513L11.2227 19.9513L11.5613 20.3191ZM9.71226 21.5L9.28309 21.7565C9.39685 21.9469 9.62236 22.0395 9.83706 21.9842L9.71226 21.5ZM5.91509 15.9468L5.63928 16.3638L5.63928 16.3638L5.91509 15.9468ZM4.35206 14.6274C4.13447 14.7975 4.09592 15.1117 4.26596 15.3293C4.43599 15.5469 4.75022 15.5854 4.9678 15.4154L4.35206 14.6274ZM8.58919 11.5107L8.19124 11.208L8.19124 11.208L8.58919 11.5107ZM12.5019 4.56708L12.9967 4.63891L12.9967 4.63891L12.5019 4.56708ZM0.677769 12.9035C1.53503 12.5774 2.76753 12.0906 3.82369 11.6495C4.35127 11.4291 4.83909 11.2184 5.21552 11.0438C5.4032 10.9568 5.56843 10.8763 5.69907 10.8065C5.80815 10.7483 5.95323 10.6671 6.0479 10.5756L5.35291 9.85657C5.37494 9.83528 5.35634 9.85588 5.22792 9.92447C5.12108 9.98154 4.975 10.053 4.79481 10.1366C4.43547 10.3032 3.96123 10.5083 3.43827 10.7267C2.39336 11.1632 1.17094 11.646 0.322231 11.9689L0.677769 12.9035ZM6.0479 10.5756C6.41191 10.2237 7.33474 9.2787 7.73446 8.74739L6.93535 8.1462C6.58739 8.60872 5.71531 9.50627 5.35291 9.85657L6.0479 10.5756ZM7.73446 8.74739C8.11935 8.23577 8.71969 7.81965 9.4591 7.33236L8.90882 6.49738C8.1954 6.96754 7.44183 7.47297 6.93535 8.1462L7.73446 8.74739ZM9.4591 7.33236C9.87959 7.05525 10.4605 6.48685 10.9708 5.92143C11.4837 5.35319 11.9855 4.72084 12.2286 4.287L11.3563 3.79812C11.1702 4.13024 10.7309 4.69468 10.2285 5.25143C9.72344 5.81099 9.21475 6.29577 8.90882 6.49738L9.4591 7.33236ZM12.2286 4.287C12.4411 3.90784 12.9338 3.04945 13.5227 2.29056C13.8178 1.91014 14.1238 1.57234 14.4175 1.3341C14.723 1.0862 14.9493 1 15.0943 1V0C14.6037 0 14.1531 0.260877 13.7874 0.557524C13.4099 0.863835 13.0503 1.26805 12.7326 1.67753C12.0956 2.49843 11.573 3.41132 11.3563 3.79812L12.2286 4.287ZM15.0943 1C15.1084 1 15.1651 1.00619 15.2728 1.08145C15.3794 1.15608 15.5072 1.27882 15.6517 1.45783C15.9408 1.81595 16.2461 2.33525 16.5456 2.94923C17.1423 4.1726 17.673 5.68264 17.9804 6.79296L18.9441 6.52614C18.6242 5.3705 18.0735 3.80077 17.4444 2.51085C17.1309 1.86818 16.7872 1.27246 16.4298 0.82973C16.2511 0.608306 16.0563 0.409162 15.8459 0.262003C15.6364 0.115488 15.3816 0 15.0943 0V1ZM17.9804 6.79296C18.4878 8.62552 20.2269 13.6929 21.028 15.9842L21.972 15.6541C21.1662 13.3496 19.4405 8.31912 18.9441 6.52614L17.9804 6.79296ZM21.7802 15.405C21.4337 15.1706 20.8631 14.8228 20.2619 14.5314C19.6847 14.2516 18.9904 13.9787 18.4292 13.9787V14.9787C18.7398 14.9787 19.2507 15.1526 19.8258 15.4313C20.377 15.6984 20.906 16.0209 21.2198 16.2333L21.7802 15.405ZM18.4292 13.9787C17.782 13.9787 17.0088 14.2013 16.287 14.578C15.5602 14.9572 14.8427 15.5147 14.3262 16.228L15.1361 16.8145C15.5441 16.2512 16.1308 15.7874 16.7496 15.4645C17.3732 15.1391 17.9868 14.9787 18.4292 14.9787V13.9787ZM14.3262 16.228C13.4059 17.4987 11.8778 19.3482 11.2227 19.9513L11.9 20.687C12.6316 20.0135 14.2073 18.0971 15.1361 16.8145L14.3262 16.228ZM11.2227 19.9513C10.5507 20.5698 9.96376 20.9188 9.58747 21.0158L9.83706 21.9842C10.4513 21.8258 11.1851 21.345 11.9 20.687L11.2227 19.9513ZM10.1414 21.2435C9.93765 20.9026 9.71936 20.4715 9.46725 19.9751C9.21856 19.4853 8.94162 18.9416 8.63077 18.402C8.01497 17.333 7.23271 16.2187 6.1909 15.5298L5.63928 16.3638C6.47955 16.9195 7.16663 17.8638 7.76427 18.9012C8.06014 19.4148 8.32595 19.9362 8.57564 20.4279C8.82191 20.9128 9.05763 21.3794 9.28309 21.7565L10.1414 21.2435ZM6.1909 15.5298C4.45992 14.385 1.85232 12.7698 0.786045 12.0261L0.213955 12.8463C1.2829 13.5919 3.96797 15.2586 5.63928 16.3638L6.1909 15.5298ZM4.9678 15.4154C5.49039 15.007 6.31437 14.3409 7.09246 13.6662C7.85673 13.0034 8.62055 12.2954 8.98713 11.8135L8.19124 11.208C7.89745 11.5942 7.21394 12.2372 6.43732 12.9107C5.67453 13.5721 4.86407 14.2273 4.35206 14.6274L4.9678 15.4154ZM8.98713 11.8135C9.40423 11.2652 10.318 10.0302 11.1672 8.66872C11.5918 7.98808 12.0045 7.26894 12.3317 6.58345C12.6554 5.90526 12.9111 5.22807 12.9967 4.63891L12.007 4.49525C11.9431 4.93557 11.7382 5.50544 11.4292 6.15267C11.1238 6.79259 10.7318 7.47722 10.3187 8.13949C9.49272 9.4638 8.5996 10.6712 8.19124 11.208L8.98713 11.8135ZM12.9967 4.63891C13.2727 2.73772 13.7596 1.84362 14.3199 1.42512L13.7215 0.623926C12.829 1.29053 12.2922 2.5307 12.007 4.49525L12.9967 4.63891ZM5.45609 10.4794L7.70137 12.1071L8.2883 11.2974L6.04302 9.66977L5.45609 10.4794Z" fill="#333333"/>
<path d="M22.5 10.5H14.5C13.9477 10.5 13.5 10.9477 13.5 11.5V21.5C13.5 22.0523 13.9477 22.5 14.5 22.5H18.5H22.5C23.0523 22.5 23.5 22.0523 23.5 21.5V11.5C23.5 10.9477 23.0523 10.5 22.5 10.5Z" fill="white" stroke="#616161" stroke-linecap="round"/>
<path d="M15.5 13.5H20.5M15.5 19.5H20.5M15.5 16.5H20.5" stroke="#616162" stroke-linecap="round"/>
</g>
<defs>
<clipPath id="clip0_16_304">
<rect width="24" height="24" fill="white"/>
</clipPath>
</defs>
</svg>
