<svg width="256" height="256" viewBox="0 0 256 256" fill="none" xmlns="http://www.w3.org/2000/svg">
<path d="M60.5 251.5H243.5C244.605 251.5 245.5 250.605 245.5 249.5V70.2003C245.5 69.6717 245.291 69.1646 244.918 68.7899L193.493 17.0896C193.117 16.7122 192.607 16.5 192.075 16.5H60.5C59.3954 16.5 58.5 17.3954 58.5 18.5V249.5C58.5 250.605 59.3954 251.5 60.5 251.5Z" fill="white" stroke="#616161" stroke-width="5" stroke-linecap="round"/>
<path d="M128.5 134.5H175.5M152.5 157.5H199.5M176.5 180.5H223.5M152.503 203.498L199.5 203.5M128.5 226.5H175.5" stroke="#616162" stroke-width="5" stroke-linecap="round"/>
<path d="M82 122.5L94 134L82 146.5M99 122.5L111 134L99 146.5" stroke="#616162" stroke-width="5" stroke-linecap="round" stroke-linejoin="round"/>
<path fill-rule="evenodd" clip-rule="evenodd" d="M165.58 39.6767C158.972 40.7704 157.422 48.2444 155.417 56.8577C155.118 58.9207 146.617 72.0764 145.528 74.3577C142.682 78.9208 132.523 86.1486 131.127 87.984C134.734 90.3694 139.544 94.7448 141.608 98.329C142.655 100.145 146.659 107.453 147.487 109.084C152.136 106.623 160.695 97.9082 163.757 93.6806C165.551 91.203 170.638 87.0269 174.102 86.0699C174.102 86.0699 178.477 85.7509 185.769 89.6702C182.873 81.2614 176.902 62.7064 175.56 57.8603C175.56 57.8603 170.092 39.5399 165.58 39.6767Z" fill="#F57729"/>
<path d="M129.841 85.4473L129.992 85.5437L130.132 85.4324C131.786 84.116 133.956 82.3387 136.021 80.548C137.075 79.6346 138.068 78.7455 138.939 77.9288L139.16 77.7217L138.915 77.544L134.326 74.2172L134.199 74.1252L134.061 74.1992L134.028 74.2166L134.146 74.4371L134.028 74.2166C133.583 74.4545 133.024 74.7264 132.395 75.018C131.134 75.6032 129.502 76.308 127.741 77.0434C125.72 77.8876 123.506 78.7819 121.444 79.5965L120.993 79.7748L121.4 80.0387C123.074 81.1245 125.009 82.3599 127.001 83.6323L127.015 83.6407C127.951 84.2385 128.9 84.8447 129.841 85.4473ZM137.565 71.0689L137.367 71.276L137.599 71.444L141.825 74.5077L142.024 74.6518L142.172 74.4556C143.648 72.4945 146.358 68.7793 148.879 64.7384C150.251 62.5385 151.549 60.2708 152.558 58.1567C152.595 58.0789 152.788 57.762 153.077 57.3C153.335 56.8857 153.66 56.3714 153.991 55.8484L154.083 55.703C154.444 55.1311 154.806 54.5588 155.086 54.1071C155.227 53.8814 155.348 53.6848 155.438 53.533C155.525 53.3883 155.595 53.2678 155.622 53.2053L155.203 52.9421C155.116 53.0437 154.87 53.3873 154.557 53.8304C154.272 54.2338 153.923 54.7333 153.568 55.2419L153.443 55.4196C153.046 55.9888 152.648 56.5568 152.331 57.0042C152.007 57.4604 151.78 57.7714 151.714 57.8446C150.011 59.7317 148.044 61.6612 146.595 62.6164C144.12 64.2475 142.182 65.5976 140.95 67.2358C140.172 68.2699 138.814 69.7609 137.565 71.0689Z" fill="#068CFC" stroke="#068CFC" stroke-width="0.5"/>
<path d="M116.5 79.2873L115.611 76.9507C114.745 77.2801 114.132 78.0615 114.019 78.9811C113.905 79.9007 114.31 80.8077 115.07 81.3378L116.5 79.2873ZM133.835 71.8869L135.572 73.6845L135.572 73.6845L133.835 71.8869ZM139.283 65.9893L141.281 67.4923L141.281 67.4923L139.283 65.9893ZM145.447 60.8829L144.071 58.7954L144.071 58.7954L145.447 60.8829ZM154.142 51.3085L156.322 52.5307L156.322 52.5307L154.142 51.3085ZM176.374 60.0318L178.784 59.3648L178.784 59.3648L176.374 60.0318ZM186.5 90.5638L185.099 92.6344C185.992 93.2384 187.171 93.2022 188.025 92.5447C188.879 91.8871 189.216 90.7561 188.86 89.7387L186.5 90.5638ZM163.937 92.9042L165.962 94.3706L165.962 94.3706L163.937 92.9042ZM153.371 105.564L151.678 103.724L151.678 103.724L153.371 105.564ZM147.208 109.5L145.062 110.783C145.63 111.734 146.758 112.198 147.832 111.921L147.208 109.5ZM134.55 90.9893L133.171 93.0746L133.171 93.0746L134.55 90.9893ZM128.827 85.9348C127.739 86.785 127.546 88.3561 128.397 89.444C129.247 90.532 130.818 90.7247 131.906 89.8745L128.827 85.9348ZM143.464 76.2025L141.474 74.6889L141.474 74.6889L143.464 76.2025ZM156.506 53.0569L158.98 53.4161L158.98 53.4161L156.506 53.0569ZM117.389 81.624C120.254 80.5343 124.37 78.9083 127.9 77.4339C129.663 76.6977 131.3 75.9905 132.569 75.402C133.201 75.109 133.768 74.8333 134.223 74.5901C134.57 74.4045 135.159 74.0835 135.572 73.6845L132.097 70.0894C132.268 69.9244 132.311 69.9426 131.867 70.1799C131.531 70.3595 131.06 70.5904 130.465 70.866C129.282 71.4149 127.712 72.0937 125.973 72.8202C122.499 74.2711 118.433 75.8772 115.611 76.9507L117.389 81.624ZM135.572 73.6845C136.787 72.5103 139.905 69.3206 141.281 67.4923L137.285 64.4864C136.168 65.9708 133.304 68.923 132.097 70.0894L135.572 73.6845ZM141.281 67.4923C142.462 65.9216 144.336 64.6089 146.822 62.9704L144.071 58.7954C141.714 60.3484 139.075 62.1076 137.285 64.4864L141.281 67.4923ZM146.822 62.9704C148.319 61.9837 150.316 60.0194 152.021 58.1298C153.74 56.2261 155.464 54.0616 156.322 52.5307L151.961 50.0864C151.388 51.1086 149.976 52.9335 148.31 54.7798C146.631 56.6401 144.995 58.1863 144.071 58.7954L146.822 62.9704ZM156.322 52.5307C157.027 51.2732 158.645 48.4573 160.567 45.9794C161.532 44.7356 162.508 43.6649 163.417 42.9275C164.385 42.1418 164.952 42 165.148 42V37C163.225 37 161.535 38.0152 160.266 39.0446C158.938 40.1224 157.695 41.5251 156.617 42.9142C154.454 45.7023 152.687 48.7906 151.961 50.0864L156.322 52.5307ZM165.148 42C164.967 42 164.991 41.9295 165.265 42.1211C165.534 42.3094 165.904 42.6548 166.357 43.2162C167.264 44.3394 168.25 46.0067 169.236 48.0294C171.198 52.0518 172.951 57.0356 173.965 60.6989L178.784 59.3648C177.707 55.4749 175.854 50.1927 173.73 45.8375C172.674 43.6714 171.496 41.622 170.248 40.0757C169.624 39.3023 168.918 38.5748 168.131 38.0238C167.347 37.476 166.333 37 165.148 37V42ZM173.965 60.6989C175.665 66.8404 181.474 83.7626 184.14 91.3889L188.86 89.7387C186.17 82.0458 180.429 65.3084 178.784 59.3648L173.965 60.6989ZM187.901 88.4932C186.719 87.6932 184.782 86.513 182.737 85.5215C180.81 84.588 178.343 83.5957 176.264 83.5957V88.5957C177.091 88.5957 178.641 89.0928 180.556 90.0209C182.351 90.8912 184.08 91.945 185.099 92.6344L187.901 88.4932ZM176.264 83.5957C173.936 83.5957 171.226 84.3895 168.738 85.6878C166.225 86.999 163.725 88.9353 161.912 91.4379L165.962 94.3706C167.231 92.6178 169.078 91.1499 171.051 90.1206C173.048 89.0785 174.96 88.5957 176.264 88.5957V83.5957ZM161.912 91.4379C158.852 95.6635 153.798 101.773 151.678 103.724L155.064 107.403C157.567 105.1 162.859 98.6556 165.962 94.3706L161.912 91.4379ZM151.678 103.724C149.474 105.753 147.64 106.807 146.584 107.079L147.832 111.921C150.077 111.342 152.646 109.629 155.064 107.403L151.678 103.724ZM149.353 108.217C148.692 107.111 147.979 105.704 147.134 104.04C146.306 102.409 145.373 100.578 144.325 98.7574C142.257 95.1679 139.57 91.3118 135.929 88.9041L133.171 93.0746C135.804 94.8158 138.015 97.8214 139.992 101.253C140.966 102.944 141.843 104.663 142.676 106.304C143.492 107.91 144.292 109.495 145.062 110.783L149.353 108.217ZM135.929 88.9041C130.11 85.0553 121.482 79.7144 117.93 77.2368L115.07 81.3378C118.635 83.8247 127.65 89.4231 133.171 93.0746L135.929 88.9041ZM131.906 89.8745C133.657 88.5063 136.414 86.277 139.021 84.0168C141.558 81.8167 144.171 79.4021 145.454 77.7161L141.474 74.6889C140.556 75.8965 138.344 77.9856 135.745 80.2393C133.215 82.4331 130.525 84.608 128.827 85.9348L131.906 89.8745ZM145.454 77.7161C146.851 75.8788 149.914 71.7394 152.764 67.1701C154.189 64.886 155.582 62.4601 156.691 60.1371C157.782 57.8507 158.677 55.504 158.98 53.4161L154.032 52.6978C153.837 54.0415 153.196 55.8516 152.179 57.9833C151.179 60.0784 149.889 62.3317 148.522 64.5239C145.788 68.9073 142.828 72.9091 141.474 74.6889L145.454 77.7161ZM158.98 53.4161C159.893 47.1316 161.474 44.4396 163.065 43.2514L160.073 39.2454C156.821 41.6742 154.99 46.0965 154.032 52.6978L158.98 53.4161ZM132.531 73.4394L140.015 78.8649L142.95 74.8167L135.466 69.3912L132.531 73.4394Z" fill="#333333"/>
<path d="M11.0025 69.3793L45.7941 69.2059V104C45.7941 104.276 46.018 104.5 46.2941 104.5H74.7059C74.982 104.5 75.2059 104.276 75.2059 104V69.2059H110C110.276 69.2059 110.5 68.982 110.5 68.7059V40.2941C110.5 40.018 110.276 39.7941 110 39.7941H75.2059V5C75.2059 4.72386 74.982 4.5 74.7059 4.5H46.2941C46.018 4.5 45.7941 4.72386 45.7941 5V39.7941H11C10.7239 39.7941 10.5 40.018 10.5 40.2941V68.8793C10.5 69.1565 10.7254 69.3807 11.0025 69.3793Z" fill="#FFEF91" stroke="#674C06" stroke-width="5"/>
</svg>
