<svg width="14" height="14" viewBox="0 0 14 14" fill="none" xmlns="http://www.w3.org/2000/svg">
<g clip-path="url(#clip0_16_406)">
<path fill-rule="evenodd" clip-rule="evenodd" d="M8.96528 1.32589C8.72111 1.60672 8.49793 2.12253 8.35895 3.0799C8.30333 3.46305 8.13875 3.89555 7.93652 4.31921C7.73127 4.7492 7.47319 5.19866 7.20896 5.62228C6.68038 6.46972 6.11216 7.23762 5.85287 7.57847C5.61693 7.88862 5.13414 8.33502 4.66255 8.74396C4.35841 9.0077 4.04312 9.2692 3.7702 9.49011C3.88117 9.5624 3.98865 9.63287 4.09136 9.70079C4.76124 10.1438 5.25728 10.8547 5.64074 11.5203C5.83502 11.8576 6.00784 12.1969 6.16167 12.4999L6.1691 12.5145C6.24925 12.6723 6.32321 12.818 6.39285 12.95C6.57735 12.845 6.80355 12.6808 7.05412 12.4501C7.45023 12.0855 8.39031 10.9488 8.95891 10.1637C9.29213 9.70357 9.75245 9.34686 10.2157 9.10511C10.6748 8.86557 11.1732 8.72009 11.5992 8.72009C11.9521 8.72009 12.3694 8.87771 12.7142 9.03956C12.1763 7.47793 11.4512 5.3286 11.202 4.42861C11.0133 3.74688 10.6872 2.81948 10.3218 2.0704C10.1382 1.69387 9.9539 1.38186 9.78341 1.17064C9.6982 1.06508 9.6274 0.998551 9.5742 0.961336C9.54879 0.943565 9.53299 0.936302 9.52599 0.933594C9.47462 0.93728 9.36502 0.973442 9.1937 1.11243C9.17177 1.13022 9.14966 1.14902 9.12739 1.16877L9.12967 1.17182C9.11478 1.18294 9.09991 1.19473 9.08508 1.20724C9.04552 1.24409 9.00553 1.28376 8.96528 1.32589Z" fill="#F57729"/>
<path fill-rule="evenodd" clip-rule="evenodd" d="M3.00225 8.99514C3.30901 8.75096 3.7116 8.42132 4.09449 8.0893C4.28979 7.91995 4.47375 7.75523 4.63501 7.60407L3.78273 6.98623C3.78067 6.98733 3.77864 6.98842 3.77665 6.98948C3.69283 7.03425 3.58818 7.08517 3.47106 7.13948C3.23592 7.24853 2.93225 7.37969 2.60509 7.51635C2.22938 7.67328 1.81783 7.83947 1.43481 7.99084C1.74543 8.19237 2.10462 8.4217 2.47477 8.65802C2.64946 8.76956 2.82664 8.88268 3.00225 8.99514ZM4.44519 6.39603L5.23006 6.965C5.50388 6.60134 6.00626 5.91256 6.47333 5.16373C6.72763 4.75603 6.96771 4.33648 7.15411 3.94598C7.18757 3.87588 7.21888 3.80758 7.24796 3.74121C7.19054 3.80807 7.13213 3.87438 7.07369 3.93912C6.75713 4.28987 6.38857 4.65209 6.11408 4.83298C5.65314 5.13675 5.30047 5.3833 5.07726 5.68C4.93096 5.87446 4.67717 6.15309 4.44519 6.39603Z" fill="#068CFC"/>
<path d="M0.5 7.88907L0.322231 7.42174C0.149021 7.48763 0.0264605 7.64391 0.00376408 7.82784C-0.0189323 8.01176 0.0619589 8.19315 0.213954 8.29917L0.5 7.88907ZM3.7193 6.51472L4.0668 6.87422L4.0668 6.87422L3.7193 6.51472ZM4.73113 5.41944L4.33158 5.11885L4.33158 5.11885L4.73113 5.41944ZM7.49056 2.69301L7.05439 2.44858L7.05439 2.44858L7.49056 2.69301ZM11.6195 4.31305L12.1014 4.17964L12.1014 4.17964L11.6195 4.31305ZM13.5 9.98328L13.2198 10.3974C13.3984 10.5182 13.6342 10.511 13.805 10.3794C13.9758 10.2479 14.0431 10.0217 13.972 9.81825L13.5 9.98328ZM9.30975 10.4179L8.90479 10.1247L8.90479 10.1247L9.30975 10.4179ZM7.34748 12.769L7.00885 12.4011L7.00885 12.4011L7.34748 12.769ZM6.20283 13.5L5.77366 13.7565C5.88742 13.9469 6.11292 14.0395 6.32763 13.9842L6.20283 13.5ZM3.8522 10.0623L3.57639 10.4794L3.57639 10.4794L3.8522 10.0623ZM2.76754 9.0955C2.54996 9.26554 2.51141 9.57976 2.68145 9.79735C2.85148 10.0149 3.16571 10.0535 3.38329 9.88345L2.76754 9.0955ZM5.50781 7.31622L5.90576 7.61894L5.90576 7.61894L5.50781 7.31622ZM7.92994 3.01775L8.42475 3.08959L8.42475 3.08959L7.92994 3.01775ZM0.677769 8.3564C1.21008 8.15392 1.97498 7.85181 2.63094 7.57782C2.95841 7.44103 3.26298 7.30949 3.49926 7.19991C3.61688 7.14537 3.72281 7.09386 3.80822 7.04824C3.87205 7.01414 3.98596 6.95236 4.0668 6.87422L3.3718 6.15521C3.40767 6.12054 3.42025 6.12175 3.33706 6.16619C3.27546 6.19909 3.18867 6.24165 3.07855 6.29272C2.85937 6.39437 2.56837 6.52022 2.24551 6.65508C1.60081 6.92437 0.845997 7.22251 0.322231 7.42174L0.677769 8.3564ZM4.0668 6.87422C4.29244 6.65611 4.87339 6.06205 5.13069 5.72004L4.33158 5.11885C4.12603 5.39207 3.59584 5.93865 3.3718 6.15521L4.0668 6.87422ZM5.13069 5.72004C5.34579 5.43411 5.68825 5.19352 6.15092 4.8886L5.60065 4.05362C5.16395 4.34141 4.66827 4.67131 4.33158 5.11885L5.13069 5.72004ZM6.15092 4.8886C6.43305 4.70267 6.80643 4.33488 7.12334 3.98374C7.44279 3.62979 7.76537 3.2254 7.92674 2.93745L7.05439 2.44858C6.95003 2.63479 6.69007 2.97128 6.38098 3.31374C6.06935 3.65902 5.7682 3.94319 5.60065 4.05362L6.15092 4.8886ZM7.92674 2.93745C8.05746 2.70419 8.35678 2.18318 8.71213 1.72521C8.89057 1.49525 9.06978 1.29878 9.23558 1.16427C9.4133 1.02009 9.51062 1 9.53459 1V0C9.16507 0 8.84336 0.194767 8.60556 0.387691C8.35584 0.590278 8.12306 0.853157 7.92207 1.11218C7.5186 1.63217 7.18939 2.20767 7.05439 2.44858L7.92674 2.93745ZM9.53459 1C9.49125 1 9.48865 0.98301 9.53586 1.01603C9.58216 1.04841 9.64848 1.10985 9.73141 1.21258C9.89735 1.41816 10.0791 1.72507 10.2618 2.09969C10.625 2.84434 10.9497 3.76776 11.1376 4.44647L12.1014 4.17964C11.9009 3.45561 11.5562 2.47251 11.1606 1.66131C10.9639 1.25801 10.7438 0.874669 10.5095 0.584481C10.3924 0.439329 10.259 0.301497 10.109 0.196583C9.95994 0.0923121 9.76444 0 9.53459 0V1ZM11.1376 4.44647C11.4538 5.58845 12.533 8.73246 13.028 10.1483L13.972 9.81825C13.4723 8.38911 12.4066 5.28204 12.1014 4.17964L11.1376 4.44647ZM13.7802 9.56916C13.5594 9.4198 13.1983 9.19971 12.8167 9.01472C12.4589 8.84131 11.9942 8.65349 11.5991 8.65349V9.65349C11.7436 9.65349 12.0249 9.74226 12.3805 9.9146C12.7122 10.0753 13.0318 10.2702 13.2198 10.3974L13.7802 9.56916ZM11.5991 8.65349C11.1594 8.65349 10.6504 8.80312 10.1848 9.04608C9.71428 9.29159 9.24525 9.65454 8.90479 10.1247L9.7147 10.7112C9.94657 10.391 10.2849 10.1218 10.6474 9.93263C11.0147 9.74094 11.3642 9.65349 11.5991 9.65349V8.65349ZM8.90479 10.1247C8.33676 10.909 7.39986 12.0412 7.00885 12.4011L7.68612 13.1369C8.1536 12.7065 9.13808 11.5074 9.7147 10.7112L8.90479 10.1247ZM7.00885 12.4011C6.60104 12.7765 6.26565 12.9675 6.07803 13.0158L6.32763 13.9842C6.75322 13.8745 7.23544 13.5517 7.68612 13.1369L7.00885 12.4011ZM6.632 13.2435C6.50998 13.0393 6.37817 12.7793 6.22099 12.4697C6.06722 12.167 5.89366 11.8261 5.69838 11.4871C5.31371 10.8194 4.81133 10.0972 4.12801 9.64526L3.57639 10.4794C4.05816 10.798 4.46538 11.3501 4.83188 11.9863C5.01219 12.2993 5.17462 12.6178 5.32937 12.9225C5.48071 13.2205 5.62995 13.5161 5.77366 13.7565L6.632 13.2435ZM4.12801 9.64526C3.04508 8.92908 1.44561 7.93903 0.786046 7.47898L0.213954 8.29917C0.876193 8.76109 2.55314 9.80264 3.57639 10.4794L4.12801 9.64526ZM3.38329 9.88345C3.70881 9.62906 4.22147 9.21465 4.70606 8.79443C5.17682 8.38621 5.66496 7.93547 5.90576 7.61894L5.10987 7.01349C4.94186 7.23435 4.53404 7.61999 4.05092 8.03892C3.58163 8.44587 3.08249 8.84939 2.76754 9.0955L3.38329 9.88345ZM5.90576 7.61894C6.16563 7.27732 6.73523 6.50759 7.26535 5.65767C7.53034 5.23283 7.78981 4.78107 7.99651 4.34803C8.19972 3.92231 8.36769 3.48266 8.42475 3.08959L7.43513 2.94592C7.39967 3.19015 7.28249 3.52249 7.09405 3.91726C6.9091 4.30472 6.67041 4.72196 6.41687 5.12844C5.90995 5.94117 5.361 6.68337 5.10987 7.01349L5.90576 7.61894ZM8.42475 3.08959C8.59386 1.92473 8.8858 1.43715 9.16939 1.22534L8.57099 0.424144C7.95521 0.884065 7.61343 1.71771 7.43513 2.94592L8.42475 3.08959ZM3.45648 6.83198L4.84642 7.83958L5.43335 7.02994L4.04341 6.02234L3.45648 6.83198Z" fill="#333333"/>
</g>
<defs>
<clipPath id="clip0_16_406">
<rect width="14" height="14" fill="white"/>
</clipPath>
</defs>
</svg>
