<svg xmlns="http://www.w3.org/2000/svg" xmlns:xlink="http://www.w3.org/1999/xlink" viewBox="0 0 32 32"><defs><style>.cls-1{fill:none;}.cls-2{fill:url(#linear-gradient);}.cls-3{fill:url(#linear-gradient-2);}.cls-4{fill:url(#linear-gradient-3);}.cls-5{fill:url(#linear-gradient-4);}.cls-6{fill:url(#linear-gradient-5);}.cls-7{fill:url(#linear-gradient-6);}.cls-8{fill:url(#radial-gradient);}.cls-9{fill:url(#linear-gradient-7);}.cls-10{fill:url(#linear-gradient-8);}.cls-11{fill:url(#linear-gradient-9);}.cls-12{fill:#ef9341;opacity:0;}.cls-13{fill:#ef9542;opacity:0.02;}.cls-14{fill:#ef9642;opacity:0.04;}.cls-15{fill:#ef9842;opacity:0.06;}.cls-16{fill:#ef9942;opacity:0.08;}.cls-17{fill:#ee9b42;opacity:0.1;}.cls-18{fill:#ef9d43;opacity:0.12;}.cls-19{fill:#ef9e43;opacity:0.14;}.cls-20{fill:#eea043;opacity:0.16;}.cls-21{fill:#efa142;opacity:0.18;}.cls-22{fill:#eea343;opacity:0.2;}.cls-23{fill:#eea543;opacity:0.22;}.cls-24{fill:#eea643;opacity:0.24;}.cls-25{fill:#eea843;opacity:0.25;}.cls-26{fill:#ea4;opacity:0.27;}.cls-27{fill:#edab44;opacity:0.29;}.cls-28{fill:#eead44;opacity:0.31;}.cls-29{fill:#edae43;opacity:0.33;}.cls-30{fill:#edb044;opacity:0.35;}.cls-31{fill:#eeb244;opacity:0.37;}.cls-32{fill:#edb344;opacity:0.39;}.cls-33{fill:#edb544;opacity:0.41;}.cls-34{fill:#edb644;opacity:0.43;}.cls-35{fill:#edb844;opacity:0.45;}.cls-36{fill:#edba45;opacity:0.47;}.cls-37{fill:#edbb45;opacity:0.49;}.cls-38{fill:#edbd44;opacity:0.51;}.cls-39{fill:#ecbe44;opacity:0.53;}.cls-40{fill:#ecbf44;opacity:0.55;}.cls-41{fill:#edc244;opacity:0.57;}.cls-42{fill:#ecc345;opacity:0.59;}.cls-43{fill:#ecc545;opacity:0.61;}.cls-44{fill:#ecc645;opacity:0.63;}.cls-45{fill:#ecc745;opacity:0.65;}.cls-46{fill:#ecc945;opacity:0.67;}.cls-47{fill:#ecca44;opacity:0.69;}.cls-48{fill:#eccc44;opacity:0.71;}.cls-49{fill:#ebce45;opacity:0.73;}.cls-50{fill:#eccf45;opacity:0.75;}.cls-51{fill:#ebd145;opacity:0.76;}.cls-52{fill:#ebd245;opacity:0.78;}.cls-53{fill:#ebd445;opacity:0.8;}.cls-54{fill:#ebd545;opacity:0.82;}.cls-55{fill:#ebd644;opacity:0.84;}.cls-56{fill:#ead844;opacity:0.86;}.cls-57{fill:#ead944;opacity:0.88;}.cls-58{fill:#ebdb44;opacity:0.9;}.cls-59{fill:#eadd45;opacity:0.92;}.cls-60{fill:#eade45;opacity:0.94;}.cls-61{fill:#eae045;opacity:0.96;}.cls-62{fill:#eae145;opacity:0.98;}.cls-63{fill:#e9e244;}</style><linearGradient id="linear-gradient" x1="9.11" y1="15.76" x2="28.62" y2="16.2" gradientUnits="userSpaceOnUse"><stop offset="0.08" stop-color="#802318"/><stop offset="0.41" stop-color="#d15727"/><stop offset="0.45" stop-color="#d25d28"/><stop offset="0.5" stop-color="#d56f2a"/><stop offset="0.58" stop-color="#df8c26"/><stop offset="0.69" stop-color="#df8c26"/><stop offset="0.76" stop-color="#d16432"/><stop offset="0.8" stop-color="#cc5e30"/><stop offset="0.85" stop-color="#be4c2b"/><stop offset="0.91" stop-color="#a72f24"/><stop offset="0.93" stop-color="#a02621"/></linearGradient><linearGradient id="linear-gradient-2" x1="14.02" y1="16.58" x2="14.62" y2="1.35" gradientUnits="userSpaceOnUse"><stop offset="0.15" stop-color="#46141c"/><stop offset="0.66" stop-color="#0d8cba"/></linearGradient><linearGradient id="linear-gradient-3" x1="22.14" y1="2.6" x2="22.14" y2="29.36" gradientUnits="userSpaceOnUse"><stop offset="0" stop-color="#a23022"/><stop offset="0.23" stop-color="#962f1f"/><stop offset="0.64" stop-color="#772c16"/><stop offset="1" stop-color="#56290d"/></linearGradient><linearGradient id="linear-gradient-4" x1="12.44" y1="7.39" x2="23.62" y2="29.12" gradientUnits="userSpaceOnUse"><stop offset="0" stop-color="#a23022"/><stop offset="0.15" stop-color="#962f1f"/><stop offset="0.42" stop-color="#772c16"/><stop offset="0.66" stop-color="#56290d"/><stop offset="1" stop-color="#701711"/></linearGradient><linearGradient id="linear-gradient-5" x1="22.23" y1="1.92" x2="22.23" y2="23.12" gradientUnits="userSpaceOnUse"><stop offset="0" stop-color="#3487c7"/><stop offset="0.53" stop-color="#225b90"/><stop offset="0.9" stop-color="#17406e"/></linearGradient><linearGradient id="linear-gradient-6" x1="21.81" y1="2.59" x2="21.81" y2="29.88" xlink:href="#linear-gradient-3"/><radialGradient id="radial-gradient" cx="184.85" cy="5.67" r="27.38" gradientTransform="matrix(1.01, 0.73, -1.01, 1.21, -179.95, -136.39)" gradientUnits="userSpaceOnUse"><stop offset="0.33" stop-color="#73c7ea"/><stop offset="0.46" stop-color="#0d8cba"/><stop offset="0.48" stop-color="#d16432"/><stop offset="0.63" stop-color="#d05e30"/><stop offset="0.83" stop-color="#ce4c2a"/><stop offset="0.93" stop-color="#cd4127"/></radialGradient><linearGradient id="linear-gradient-7" x1="21.03" y1="2.6" x2="21.03" y2="29.71" xlink:href="#linear-gradient-3"/><linearGradient id="linear-gradient-8" x1="4.05" y1="15.73" x2="15.22" y2="21.65" gradientUnits="userSpaceOnUse"><stop offset="0.24" stop-color="#73c7ea"/><stop offset="0.78" stop-color="#5357a5"/></linearGradient><linearGradient id="linear-gradient-9" x1="11.62" y1="4.3" x2="11.62" y2="25.84" xlink:href="#linear-gradient-5"/></defs><g id="Icons"><g id="matlabHiRes_32"><path class="cls-1" d="M7.73,21.53l-.23.15.26-.14Z"/><path class="cls-2" d="M14.33,29c1.15-.29,3.34-2.69,4.33-3.87,2.21-2.6,3.45-4.59,6.71-4.49.93,0,2.89,1.43,3.81,2-.55-1.79-1.87-5.24-3.11-8.62,0,0-3.16-9.16-4.9-11,0-.19-.31.16-.5.2l-.09,0a1.1,1.1,0,0,0-.58.55c-.1.19-.26.61-.26.61a46.41,46.41,0,0,1-5.48,11.16,20.68,20.68,0,0,1-5.82,5.5l-.71.48h0l.55-.3A15.46,15.46,0,0,1,14.33,29Z"/><path class="cls-3" d="M13.63,15.08A56,56,0,0,0,18.69,4.67C17.56,6,14.58,10.5,13.42,11.1A5,5,0,0,0,11,13.3a6.31,6.31,0,0,1-.59.84,3.66,3.66,0,0,1-.49.37L12.5,16.6C12.85,16.2,13.31,15.54,13.63,15.08Z"/><path class="cls-4" d="M22.06,2.76c.05.07.12.13.17.19Z"/><path class="cls-5" d="M30,22.78C29.41,20.93,24.78,5.92,22.23,3c0,0-.23,0-.55,0a3.2,3.2,0,0,0-1,.23c.19,0,.45-.22.5-.2,1.74,1.84,4.9,11,4.9,11,1.24,3.38,2.39,6.55,2.93,8.33a6,6,0,0,0-4-2.15c-3,0-4.44,2.35-6.65,4.95-1,1.18-3,3.41-4,3.85a15.46,15.46,0,0,0-6-7.73l-.55.3-.26.14,0,0a13,13,0,0,1,6.24,8.14h.08c3,0,7.21-9.53,11.15-9A6.25,6.25,0,0,1,28.85,23C29.33,23.43,30.22,23.73,30,22.78Z"/><polygon class="cls-6" points="22.23 2.95 22.23 2.95 22.23 2.95 22.23 2.95"/><path class="cls-7" d="M21.38,2.69a3.85,3.85,0,0,1,.3.27c.32,0,.55,0,.55,0h0c-.05-.06-.12-.12-.17-.19l-.19-.17Z"/><path class="cls-8" d="M21.38,2.69l-1,.19.14.36.15-.05a3.2,3.2,0,0,1,1-.23A3.85,3.85,0,0,0,21.38,2.69Z"/><path class="cls-9" d="M21.38,2.69l-1,.19.14.36.15-.05a3.2,3.2,0,0,1,1-.23A3.85,3.85,0,0,0,21.38,2.69Z"/><path class="cls-10" d="M12,17.27,9.37,14.93a66.9,66.9,0,0,1-7.11,2.86l5.21,3.38A21.71,21.71,0,0,0,12,17.27Z"/><path class="cls-11" d="M22.23,3c-.05-.06-.12-.12-.17-.19A2.59,2.59,0,0,0,21,2a1.35,1.35,0,0,0-.18,0c-2.58-.1-5.46,7-7.82,8.24s-2.6,2.47-3.4,3.53S1,17.51,1,17.51l6.5,4.17.23-.15.71-.48a20.68,20.68,0,0,0,5.82-5.5A46.41,46.41,0,0,0,19.74,4.39S19.9,4,20,3.78a1.1,1.1,0,0,1,.58-.55l.09,0a3.2,3.2,0,0,1,1-.23c.32,0,.55,0,.55,0ZM7.57,20.79,2.48,17.67A68.57,68.57,0,0,0,9.24,15l2.56,2.2A20,20,0,0,1,7.57,20.79Zm6.06-5.71c-.32.46-.78,1.12-1.13,1.52L9.91,14.51a3.66,3.66,0,0,0,.49-.37A6.31,6.31,0,0,0,11,13.3a5,5,0,0,1,2.43-2.2c1.16-.6,4.14-5.12,5.27-6.43A56,56,0,0,1,13.63,15.08Z"/><path class="cls-12" d="M22.51,9.27c.16,2.82-.29,5.09-1,5.09s-1.42-2.28-1.59-5.09.3-5.08,1-5.09S22.34,6.44,22.51,9.27Z"/><path class="cls-13" d="M22.49,9.23c.16,2.79-.28,5-1,5S20.1,12,20,9.23s.29-5,1-5S22.33,6.43,22.49,9.23Z"/><path class="cls-14" d="M22.48,9.19c.15,2.77-.29,5-1,5S20.12,12,20,9.2s.29-5,1-5S22.31,6.42,22.48,9.19Z"/><path class="cls-15" d="M22.46,9.16c.15,2.73-.28,4.94-.95,4.94S20.13,11.89,20,9.16s.28-4.93.95-4.94S22.3,6.41,22.46,9.16Z"/><path class="cls-16" d="M22.44,9.12c.15,2.71-.27,4.89-.94,4.9S20.14,11.83,20,9.13s.28-4.89.94-4.89S22.28,6.41,22.44,9.12Z"/><path class="cls-17" d="M22.43,9.09c.14,2.68-.28,4.84-.93,4.84S20.15,11.76,20,9.09s.27-4.83.92-4.84S22.27,6.4,22.43,9.09Z"/><path class="cls-18" d="M22.41,9.05c.15,2.65-.27,4.79-.92,4.79S20.17,11.7,20,9.06s.27-4.79.92-4.79S22.26,6.39,22.41,9.05Z"/><path class="cls-19" d="M22.39,9c.15,2.63-.26,4.74-.9,4.75S20.18,11.63,20,9s.27-4.73.91-4.74S22.24,6.38,22.39,9Z"/><path class="cls-20" d="M22.38,9c.14,2.59-.26,4.69-.9,4.69S20.19,11.57,20.05,9s.26-4.68.89-4.68S22.23,6.38,22.38,9Z"/><path class="cls-21" d="M22.36,8.94c.14,2.57-.26,4.64-.88,4.64S20.2,11.51,20.06,9s.26-4.63.88-4.64S22.21,6.37,22.36,8.94Z"/><path class="cls-22" d="M22.34,8.91c.15,2.53-.25,4.58-.87,4.59s-1.25-2.06-1.39-4.59.25-4.58.87-4.58S22.2,6.36,22.34,8.91Z"/><path class="cls-23" d="M22.33,8.87c.14,2.51-.25,4.54-.86,4.54s-1.24-2-1.38-4.53.26-4.53.86-4.54S22.18,6.35,22.33,8.87Z"/><path class="cls-24" d="M22.31,8.84c.14,2.48-.25,4.48-.85,4.48s-1.22-2-1.35-4.48.25-4.48.84-4.48S22.17,6.35,22.31,8.84Z"/><path class="cls-25" d="M22.29,8.8c.14,2.45-.24,4.43-.83,4.44s-1.21-2-1.34-4.44.25-4.42.83-4.43S22.15,6.34,22.29,8.8Z"/><path class="cls-26" d="M22.28,8.76c.13,2.43-.24,4.39-.83,4.39s-1.18-2-1.32-4.38.25-4.38.82-4.38S22.14,6.33,22.28,8.76Z"/><path class="cls-27" d="M22.26,8.73c.13,2.39-.24,4.33-.81,4.33s-1.17-1.94-1.3-4.33.24-4.32.81-4.33S22.13,6.32,22.26,8.73Z"/><path class="cls-28" d="M22.24,8.69c.13,2.37-.23,4.28-.8,4.29s-1.15-1.92-1.28-4.28.24-4.28.8-4.28S22.11,6.32,22.24,8.69Z"/><path class="cls-29" d="M22.23,8.66c.12,2.34-.23,4.23-.79,4.23S20.3,11,20.18,8.66s.23-4.22.78-4.23S22.1,6.31,22.23,8.66Z"/><path class="cls-30" d="M22.21,8.62c.13,2.31-.23,4.18-.77,4.18s-1.12-1.87-1.25-4.17.23-4.18.77-4.18S22.08,6.3,22.21,8.62Z"/><path class="cls-31" d="M22.19,8.58c.13,2.29-.22,4.13-.76,4.14s-1.1-1.85-1.22-4.13.22-4.12.76-4.13S22.07,6.29,22.19,8.58Z"/><path class="cls-32" d="M22.18,8.55c.12,2.25-.22,4.08-.75,4.08s-1.09-1.83-1.21-4.08.22-4.07.75-4.07S22.05,6.29,22.18,8.55Z"/><path class="cls-33" d="M22.16,8.51c.12,2.23-.22,4-.74,4s-1.07-1.8-1.18-4,.21-4,.73-4S22,6.28,22.16,8.51Z"/><path class="cls-34" d="M22.14,8.48c.12,2.2-.21,4-.72,4s-1.05-1.79-1.17-4,.21-4,.72-4S22,6.27,22.14,8.48Z"/><path class="cls-35" d="M22.13,8.44c.11,2.17-.21,3.93-.72,3.93s-1-1.76-1.15-3.92.21-3.92.71-3.93S22,6.26,22.13,8.44Z"/><path class="cls-36" d="M22.11,8.41c.11,2.14-.21,3.87-.7,3.87s-1-1.73-1.13-3.87.2-3.87.7-3.88S22,6.25,22.11,8.41Z"/><path class="cls-37" d="M22.09,8.37c.12,2.11-.2,3.82-.69,3.83s-1-1.72-1.11-3.83.2-3.81.69-3.82S22,6.25,22.09,8.37Z"/><path class="cls-38" d="M22.08,8.33c.11,2.09-.2,3.78-.68,3.78s-1-1.69-1.09-3.77.2-3.77.67-3.78S22,6.24,22.08,8.33Z"/><path class="cls-39" d="M22.06,8.3c.11,2.06-.2,3.72-.67,3.72s-1-1.67-1.07-3.72.2-3.71.66-3.72S22,6.23,22.06,8.3Z"/><path class="cls-40" d="M22,8.26c.11,2-.19,3.67-.65,3.68s-.95-1.65-1.05-3.67.19-3.67.65-3.68S21.93,6.22,22,8.26Z"/><path class="cls-41" d="M22,8.23c.1,2-.19,3.62-.65,3.62s-.93-1.62-1-3.62.19-3.61.64-3.62S21.92,6.22,22,8.23Z"/><path class="cls-42" d="M22,8.19c.1,2-.19,3.57-.63,3.57s-.92-1.6-1-3.56.19-3.57.63-3.58S21.9,6.21,22,8.19Z"/><path class="cls-43" d="M22,8.15c.1,1.95-.18,3.52-.62,3.53s-.89-1.58-1-3.52.18-3.51.61-3.52S21.89,6.2,22,8.15Z"/><path class="cls-44" d="M22,8.12c.1,1.92-.18,3.47-.61,3.47s-.88-1.56-1-3.47.18-3.46.6-3.47S21.88,6.19,22,8.12Z"/><path class="cls-45" d="M22,8.08c.1,1.89-.17,3.42-.6,3.42S20.5,10,20.41,8.09s.17-3.42.59-3.42S21.86,6.19,22,8.08Z"/><path class="cls-46" d="M21.94,8.05c.1,1.86-.17,3.36-.58,3.37s-.85-1.51-.94-3.37.17-3.36.58-3.37S21.85,6.18,21.94,8.05Z"/><path class="cls-47" d="M21.93,8c.09,1.83-.17,3.32-.57,3.32S20.53,9.84,20.44,8,20.6,4.7,21,4.7,21.83,6.17,21.93,8Z"/><path class="cls-48" d="M21.91,8c.09,1.8-.16,3.26-.56,3.26s-.81-1.46-.9-3.26.16-3.26.55-3.27S21.82,6.16,21.91,8Z"/><path class="cls-49" d="M21.89,7.94c.09,1.78-.16,3.21-.54,3.22S20.56,9.71,20.46,8s.16-3.22.55-3.22S21.8,6.16,21.89,7.94Z"/><path class="cls-50" d="M21.88,7.9c.08,1.75-.16,3.17-.54,3.17s-.77-1.42-.86-3.16.15-3.16.53-3.17S21.79,6.15,21.88,7.9Z"/><path class="cls-51" d="M21.86,7.87C22,9.59,21.71,11,21.34,11s-.76-1.39-.85-3.11.15-3.11.52-3.11S21.77,6.14,21.86,7.87Z"/><path class="cls-52" d="M21.84,7.83c.09,1.69-.15,3.06-.51,3.07s-.74-1.38-.82-3.06.14-3.06.5-3.07S21.76,6.13,21.84,7.83Z"/><path class="cls-53" d="M21.83,7.8c.08,1.66-.15,3-.5,3s-.73-1.35-.81-3,.15-3,.49-3S21.74,6.13,21.83,7.8Z"/><path class="cls-54" d="M21.81,7.76c.08,1.64-.14,3-.49,3s-.7-1.33-.78-3,.14-3,.48-3S21.73,6.12,21.81,7.76Z"/><path class="cls-55" d="M21.79,7.72c.08,1.61-.14,2.91-.47,2.92s-.69-1.31-.77-2.91.14-2.91.47-2.91S21.71,6.11,21.79,7.72Z"/><path class="cls-56" d="M21.78,7.69c.07,1.58-.14,2.86-.47,2.86s-.67-1.28-.74-2.86.13-2.85.45-2.86S21.7,6.1,21.78,7.69Z"/><path class="cls-57" d="M21.76,7.65c.07,1.55-.13,2.81-.45,2.81s-.66-1.26-.73-2.8.13-2.81.44-2.81S21.68,6.1,21.76,7.65Z"/><path class="cls-58" d="M21.74,7.62c.07,1.52-.13,2.75-.44,2.76s-.63-1.24-.71-2.76.13-2.75.44-2.76S21.67,6.09,21.74,7.62Z"/><path class="cls-59" d="M21.73,7.58c.07,1.5-.13,2.71-.43,2.71s-.62-1.22-.69-2.7.12-2.71.42-2.71S21.66,6.08,21.73,7.58Z"/><path class="cls-60" d="M21.71,7.55c.07,1.46-.12,2.65-.42,2.65s-.6-1.19-.67-2.65.12-2.65.41-2.66S21.64,6.07,21.71,7.55Z"/><path class="cls-61" d="M21.69,7.51c.07,1.44-.12,2.6-.4,2.61S20.7,9,20.64,7.52s.11-2.61.39-2.61S21.63,6.07,21.69,7.51Z"/><path class="cls-62" d="M21.68,7.47c.06,1.41-.12,2.56-.4,2.56s-.57-1.15-.63-2.55.11-2.55.38-2.56S21.61,6.06,21.68,7.47Z"/><path class="cls-63" d="M21.66,7.44c.06,1.38-.11,2.5-.38,2.5s-.55-1.12-.61-2.5.1-2.5.37-2.5S21.59,6.05,21.66,7.44Z"/><rect class="cls-1" width="32" height="32"/></g></g></svg>