<svg id="Layer_1" data-name="Layer 1" xmlns="http://www.w3.org/2000/svg" xmlns:xlink="http://www.w3.org/1999/xlink" viewBox="0 0 21.76 18.27"><defs><style>.cls-1{fill:url(#radial-gradient);}.cls-2{fill:url(#linear-gradient);}.cls-3{fill:url(#linear-gradient-2);}.cls-4{fill:#404041;}.cls-5{fill:url(#radial-gradient-2);}.cls-6{fill:url(#linear-gradient-3);}.cls-7{fill:none;stroke:#404041;stroke-width:0.5px;}.cls-8{fill:url(#linear-gradient-4);}.cls-9{fill:#fff;}</style><radialGradient id="radial-gradient" cx="2.03" cy="22.02" r="17.81" gradientTransform="matrix(1, 0, 0, -1, 0, 23.99)" gradientUnits="userSpaceOnUse"><stop offset="0.12" stop-color="#fff"/><stop offset="0.55" stop-color="#ccc"/><stop offset="0.75" stop-color="#a3a3a3"/><stop offset="0.91" stop-color="#898989"/><stop offset="1" stop-color="gray"/></radialGradient><linearGradient id="linear-gradient" y1="16.01" x2="16" y2="16.01" gradientTransform="matrix(1, 0, 0, -1, 0, 24)" gradientUnits="userSpaceOnUse"><stop offset="0.36" stop-color="#454545"/><stop offset="0.85" stop-color="#1b1b21"/></linearGradient><linearGradient id="linear-gradient-2" x1="3.75" y1="11.75" x2="14.89" y2="22.89" gradientTransform="matrix(0.71, 0.71, 0.71, -0.71, -10.12, 10.89)" gradientUnits="userSpaceOnUse"><stop offset="0" stop-color="gray"/><stop offset="0.14" stop-color="#898989"/><stop offset="0.37" stop-color="#a3a3a3"/><stop offset="0.66" stop-color="#ccc"/><stop offset="0.92" stop-color="#fff"/></linearGradient><radialGradient id="radial-gradient-2" cx="-1.13" cy="14.44" r="9.37" gradientTransform="matrix(0.77, 0.64, 0.68, -0.83, -7.63, 20.76)" gradientUnits="userSpaceOnUse"><stop offset="0.01" stop-color="#f4e4a2"/><stop offset="0.43" stop-color="#f5e844"/><stop offset="0.88" stop-color="#d99500"/></radialGradient><linearGradient id="linear-gradient-3" x1="4.68" y1="17.32" x2="4.68" y2="8" gradientTransform="matrix(1, 0, 0, -1, 0, 24)" gradientUnits="userSpaceOnUse"><stop offset="0" stop-color="#ae8d35"/><stop offset="0.15" stop-color="#a07c2d"/><stop offset="0.61" stop-color="#794b17"/><stop offset="0.84" stop-color="#6a380f"/></linearGradient><linearGradient id="linear-gradient-4" x1="15.76" y1="17.73" x2="15.76" y2="5.73" gradientTransform="matrix(1, 0, 0, -1, 0, 24)" gradientUnits="userSpaceOnUse"><stop offset="0" stop-color="#68c42d"/><stop offset="0.99" stop-color="#5bad28"/></linearGradient></defs><g id="Layer_2" data-name="Layer 2"><g id="Icons"><g id="tools_24" data-name="tools 24"><path class="cls-1" d="M13,15.83A2.78,2.78,0,0,1,11,15a2.88,2.88,0,0,1-.67-3l0-.1-3-3.21L4.08,5.61,4,5.65a2.8,2.8,0,0,1-1,.18A2.84,2.84,0,0,1,.16,3,2.75,2.75,0,0,1,.35,2L2.47,4.19l1.24-.48.48-1.25L2,.35A2.82,2.82,0,0,1,5.65,4l0,.1L8.67,7.29l3.22,3.1.1,0a2.8,2.8,0,0,1,1-.18A2.83,2.83,0,0,1,15.83,13a2.87,2.87,0,0,1-.18,1l-2.12-2.18-1.24.48-.48,1.25L14,15.65a2.8,2.8,0,0,1-1,.18Z" transform="translate(0 0)"/><path class="cls-2" d="M3,.33A2.67,2.67,0,0,1,5.66,3a2.63,2.63,0,0,1-.17.92l-.06.19.14.15,3,3.15,3.14,3,.15.14.19-.06a2.63,2.63,0,0,1,3.48,3.17L13.7,11.77l-.15-.16-.21.08-1.07.42-.13.06-.05.13-.43,1.08-.08.21.16.15,1.91,1.84a2.44,2.44,0,0,1-.66.09,2.69,2.69,0,0,1-2.5-3.6l.07-.19-.14-.15-3-3.15-3.14-3-.15-.14-.19.06a2.67,2.67,0,0,1-2.82-.6A2.68,2.68,0,0,1,.45,2.32L2.27,4.23l.16.16.24-.08,1.06-.42.14-.06,0-.13.43-1.08.08-.21-.16-.15L2.32.42A2.52,2.52,0,0,1,3,.33H3M3,0A3,3,0,0,0,1.71.29L4,2.5,3.58,3.58,2.51,4,.29,1.71A3,3,0,0,0,4,5.79l3.15,3,3,3.14a3,3,0,0,0,4.1,3.75L12,13.5l.42-1.08L13.49,12l2.22,2.29A3,3,0,0,0,12,10.21l-3.15-3L5.81,4A3,3,0,0,0,3,0Z" transform="translate(0 0)"/><rect class="cls-3" x="4.54" y="4.4" width="12.46" height="1.67" transform="translate(-0.55 9.15) rotate(-45)"/><path class="cls-4" d="M14.59.47l.94.94L14.16,2.79,7,10,6,9.05,14.59.47m0-.47-9,9.05L7,10.46,14.39,3,16,1.41Z" transform="translate(0 0)"/><path class="cls-5" d="M2.25,15.75a2,2,0,0,1-1.42-.58,2.14,2.14,0,0,1,0-2.88l0-.06c.06-.06.08-.1.12-.12a2.37,2.37,0,0,1,.57-.43A35.44,35.44,0,0,0,7.35,7L9,8.67a42.07,42.07,0,0,0-4.66,5.81,2.33,2.33,0,0,1-.44.59l-.13.12h0a2.3,2.3,0,0,1-1.46.53Z" transform="translate(0 0)"/><path class="cls-6" d="M7.33,7.38,8.6,8.65a41.74,41.74,0,0,0-4.5,5.68h0a2.29,2.29,0,0,1-.37.51L3.61,15v0h0a2,2,0,0,1-1.34.47A1.76,1.76,0,0,1,1,15a1.91,1.91,0,0,1,0-2.55H1v0s.06-.07.1-.1a2.55,2.55,0,0,1,.53-.4,34.7,34.7,0,0,0,5.7-4.53m0-.71A35.54,35.54,0,0,1,1.4,11.46a2.59,2.59,0,0,0-.63.47l-.1.14-.07,0h0a2.4,2.4,0,0,0,.07,3.21,2.24,2.24,0,0,0,1.6.67,2.54,2.54,0,0,0,1.62-.59h0l0-.08.14-.13a2.41,2.41,0,0,0,.47-.63,41.17,41.17,0,0,1,4.79-5.9Z" transform="translate(0 0)"/><line class="cls-7" x1="13.68" y1="1.01" x2="14.99" y2="2.32"/><line class="cls-7" x1="13.68" y1="1.01" x2="14.99" y2="2.32"/></g></g></g><g id="Layer_2-2" data-name="Layer 2"><g id="Icons-2" data-name="Icons"><g id="complete_16" data-name="complete 16"><circle class="cls-8" cx="15.76" cy="12.27" r="6"/><path class="cls-9" d="M18.76,9.27l-4.5,4.5-1.5-1.5L12,13l2.25,2.25L19.51,10Z" transform="translate(0 0)"/></g></g></g></svg>