<svg id="Layer_1" data-name="Layer 1" xmlns="http://www.w3.org/2000/svg" xmlns:xlink="http://www.w3.org/1999/xlink" viewBox="0 0 32 32"><defs><style>.cls-1{fill:none;stroke:#706f6f;}.cls-1,.cls-3,.cls-6{stroke-miterlimit:10;}.cls-2{fill:#9d9d9c;}.cls-3{fill:#f1abc2;stroke:url(#rubber_outline);}.cls-4{fill:#c1b49a;}.cls-5{fill:url(#linear-gradient);}.cls-6{fill:url(#Light_Blue_Gradient_);stroke:url(#Blue_Gradient_);}</style><linearGradient id="rubber_outline" x1="61.99" y1="-2.03" x2="66.52" y2="-0.76" gradientTransform="translate(-37.48 17.4)" gradientUnits="userSpaceOnUse"><stop offset="0.04" stop-color="#e56691"/><stop offset="0.99" stop-color="#6d0538"/></linearGradient><linearGradient id="linear-gradient" x1="-330.35" y1="-327.4" x2="-332.91" y2="-329.97" gradientTransform="matrix(0.7, -0.71, -0.71, -0.7, 13.67, -440.73)" gradientUnits="userSpaceOnUse"><stop offset="0.06" stop-color="#58595b"/><stop offset="0.98"/></linearGradient><linearGradient id="Light_Blue_Gradient_" x1="55.23" y1="-4.61" x2="55.23" y2="-1.36" gradientTransform="translate(-28.26 23.65) scale(0.91 0.96)" gradientUnits="userSpaceOnUse"><stop offset="0.12" stop-color="#d9f0fc"/><stop offset="0.99" stop-color="#5e99c5"/></linearGradient><linearGradient id="Blue_Gradient_" x1="54.08" y1="0.93" x2="56.38" y2="-6.9" gradientTransform="translate(-28.26 23.65) scale(0.91 0.96)" gradientUnits="userSpaceOnUse"><stop offset="0.09" stop-color="#143253"/><stop offset="0.99" stop-color="#6199bc"/></linearGradient></defs><path class="cls-1" d="M1.44.5H21.56a.89.89,0,0,1,.94.84V21.56a.89.89,0,0,1-.84.94H1.44a.89.89,0,0,1-.94-.84V1.44A.89.89,0,0,1,1.34.5Z"/><rect class="cls-2" x="1" y="1" width="21" height="5"/><rect class="cls-3" x="25.4" y="14.44" width="2.73" height="3.12" transform="translate(-3.39 23.93) rotate(-45.6)"/><polygon class="cls-4" points="18.54 26.59 15.36 27.75 16.43 24.52 18.54 26.59"/><polygon class="cls-5" points="15.89 27.25 16.71 24.8 15.97 24.08 14.57 28.47 18.92 26.96 18.18 26.24 15.89 27.25"/><rect class="cls-6" x="15.95" y="19.22" width="12.27" height="3.12" transform="translate(-8.21 22.02) rotate(-45.6)"/></svg>