<svg id="Layer_1" data-name="Layer 1" xmlns="http://www.w3.org/2000/svg" xmlns:xlink="http://www.w3.org/1999/xlink" viewBox="0 0 32 32"><defs><style>.cls-1{fill:none;stroke:#706f6f;}.cls-1,.cls-3{stroke-miterlimit:10;}.cls-2{fill:#9d9d9c;}.cls-3{fill:url(#Light_Blue_Gradient_);stroke:url(#Blue_Gradient_);}</style><linearGradient id="Light_Blue_Gradient_" x1="21.37" y1="13.65" x2="21.37" y2="28.01" gradientUnits="userSpaceOnUse"><stop offset="0.12" stop-color="#d9f0fc"/><stop offset="0.99" stop-color="#5e99c5"/></linearGradient><linearGradient id="Blue_Gradient_" x1="21.34" y1="28.51" x2="21.34" y2="13.15" gradientUnits="userSpaceOnUse"><stop offset="0.09" stop-color="#143253"/><stop offset="0.99" stop-color="#6199bc"/></linearGradient></defs><path class="cls-1" d="M1.56.43H21.68a.89.89,0,0,1,.94.84V21.49a.89.89,0,0,1-.84.94H1.56a.89.89,0,0,1-.94-.84V1.37A.89.89,0,0,1,1.46.43Z"/><rect class="cls-2" x="1.12" y="0.93" width="21" height="5"/><path class="cls-3" d="M20.5,24.53c0-.23,0-.4,0-.52a4.89,4.89,0,0,1,.28-1.76,4.19,4.19,0,0,1,.69-1.13,12.72,12.72,0,0,1,1.25-1.2,6,6,0,0,0,1.17-1.27,2.06,2.06,0,0,0,.27-1,2.42,2.42,0,0,0-.79-1.78,2.69,2.69,0,0,0-1.94-.76,2.62,2.62,0,0,0-1.85.69,3.63,3.63,0,0,0-1,2.17l-1.78-.22a4.57,4.57,0,0,1,1.43-3,4.57,4.57,0,0,1,3.14-1,4.7,4.7,0,0,1,3.3,1.13,3.54,3.54,0,0,1,1.24,2.72,3.46,3.46,0,0,1-.44,1.71A8,8,0,0,1,23.8,21.1a8.5,8.5,0,0,0-1.11,1.11,2.47,2.47,0,0,0-.38.82,6.26,6.26,0,0,0-.15,1.5ZM20.39,28V26h2v2Z"/></svg>