<svg id="Layer_1" data-name="Layer 1" xmlns="http://www.w3.org/2000/svg" xmlns:xlink="http://www.w3.org/1999/xlink" viewBox="0 0 32 32"><defs><style>.cls-1{fill:none;stroke:#706f6f;}.cls-1,.cls-3{stroke-miterlimit:10;}.cls-2{fill:#9d9d9c;}.cls-3{fill:url(#Light_Blue_Gradient_);stroke:url(#Blue_Gradient_);}</style><linearGradient id="Light_Blue_Gradient_" x1="-1245.17" y1="-78.08" x2="-1245.17" y2="-92.11" gradientTransform="translate(-1222 -64) rotate(180)" gradientUnits="userSpaceOnUse"><stop offset="0.12" stop-color="#d9f0fc"/><stop offset="0.99" stop-color="#5e99c5"/></linearGradient><linearGradient id="Blue_Gradient_" x1="23.07" y1="28.61" x2="23.07" y2="13.18" gradientUnits="userSpaceOnUse"><stop offset="0.09" stop-color="#143253"/><stop offset="0.99" stop-color="#6199bc"/></linearGradient></defs><path class="cls-1" d="M1.44.5H21.56a.89.89,0,0,1,.94.84V21.56a.89.89,0,0,1-.84.94H1.44a.89.89,0,0,1-.94-.84V1.44A.89.89,0,0,1,1.34.5Z"/><rect class="cls-2" x="1" y="1" width="21" height="5"/><path class="cls-3" d="M20.61,23.16l-2.27,2.4.47.5a6.4,6.4,0,0,0,9.36,0l0,0a7.28,7.28,0,0,0,0-9.93,6.39,6.39,0,0,0-8.86-.51L18,14.18l-1.81,7.15L23,19.42l-1.3-1.37a3.32,3.32,0,0,1,4.3.49,3.73,3.73,0,0,1,0,5.11,3.39,3.39,0,0,1-2.45,1.06,3.3,3.3,0,0,1-2.43-1.06Z"/></svg>