<svg id="Layer_1" data-name="Layer 1" xmlns="http://www.w3.org/2000/svg" xmlns:xlink="http://www.w3.org/1999/xlink" viewBox="0 0 32 32"><defs><style>.cls-1{fill:none;stroke:#706f6f;}.cls-1,.cls-3{stroke-miterlimit:10;}.cls-2{fill:#9d9d9c;}.cls-3{fill:url(#Light_Blue_Gradient_);stroke:url(#Blue_Gradient_);}</style><linearGradient id="Light_Blue_Gradient_" x1="21.2" y1="14.36" x2="21.2" y2="27.47" gradientUnits="userSpaceOnUse"><stop offset="0.12" stop-color="#d9f0fc"/><stop offset="0.99" stop-color="#5e99c5"/></linearGradient><linearGradient id="Blue_Gradient_" x1="21.32" y1="28.61" x2="21.32" y2="13.23" gradientUnits="userSpaceOnUse"><stop offset="0.09" stop-color="#143253"/><stop offset="0.99" stop-color="#6199bc"/></linearGradient></defs><path class="cls-1" d="M1.44.5H21.56a.89.89,0,0,1,.94.84V21.56a.89.89,0,0,1-.84.94H1.44a.89.89,0,0,1-.94-.84V1.44A.89.89,0,0,1,1.34.5Z"/><rect class="cls-2" x="1" y="1" width="21" height="5"/><polyline class="cls-3" points="13.73 18.69 22.02 18.74 22.02 14.36 29.16 20.92 22.02 27.47 22.02 23.12 13.27 23.12 13.25 18.2"/></svg>