<svg id="Layer_1" data-name="Layer 1" xmlns="http://www.w3.org/2000/svg" xmlns:xlink="http://www.w3.org/1999/xlink" viewBox="0 0 32 32"><defs><style>.cls-1{fill:none;stroke:#706f6f;}.cls-1,.cls-3,.cls-4{stroke-miterlimit:10;}.cls-2{fill:#9d9d9c;}.cls-3{fill:url(#Light_Blue_Gradient_);stroke:url(#Blue_Gradient_);}.cls-4{fill:url(#Light_Blue_Gradient_2);stroke:url(#Blue_Gradient_2);}</style><linearGradient id="Light_Blue_Gradient_" x1="-1761.33" y1="-365.39" x2="-1774.31" y2="-366.68" gradientTransform="matrix(0, -1.05, 1.04, 0, 400.64, -1829.66)" gradientUnits="userSpaceOnUse"><stop offset="0.12" stop-color="#d9f0fc"/><stop offset="0.99" stop-color="#5e99c5"/></linearGradient><linearGradient id="Blue_Gradient_" x1="242.54" y1="1.89" x2="228.38" y2="0.49" gradientTransform="matrix(0, 1.05, -1.04, 0, 20.78, -225.56)" gradientUnits="userSpaceOnUse"><stop offset="0.09" stop-color="#143253"/><stop offset="0.99" stop-color="#6199bc"/></linearGradient><linearGradient id="Light_Blue_Gradient_2" x1="-11.48" y1="-188.04" x2="-11.48" y2="-185.37" gradientTransform="translate(198.71 5.81) rotate(-90) scale(0.91 0.96)" xlink:href="#Light_Blue_Gradient_"/><linearGradient id="Blue_Gradient_2" x1="-12.24" y1="-184.12" x2="-10.72" y2="-189.29" gradientTransform="translate(198.71 5.81) rotate(-90) scale(0.91 0.96)" xlink:href="#Blue_Gradient_"/></defs><path class="cls-1" d="M1.44.5H21.56a.89.89,0,0,1,.94.84V21.56a.89.89,0,0,1-.84.94H1.44a.89.89,0,0,1-.94-.84V1.44A.89.89,0,0,1,1.34.5Z"/><rect class="cls-2" x="1" y="1" width="21" height="5"/><path class="cls-3" d="M22.2,17.31,23,18.73a3.64,3.64,0,0,1-.62,4.52,4,4,0,0,1-5.54,0,3.74,3.74,0,0,1-1.23-2.66,5.41,5.41,0,0,1,1.17-3l-.2-.24-2.34-2.62L14,15c-2.43,2.68-2.74,7.89.18,10.73l0,0a7.88,7.88,0,0,0,10.78,0c3.34-3.27,2.44-9-.24-11l-2.57,3.16"/><rect class="cls-4" x="18.22" y="13.71" width="2.57" height="5.14"/></svg>