<svg width="256" height="256" viewBox="0 0 256 256" fill="none" xmlns="http://www.w3.org/2000/svg">
<path fill-rule="evenodd" clip-rule="evenodd" d="M170.038 24.0274C150.309 27.293 145.682 49.6081 139.695 75.3249C138.801 81.4847 113.42 120.764 110.169 127.575C101.671 141.199 71.3397 162.779 67.1711 168.259C77.9408 175.382 92.3018 188.445 98.4667 199.147C101.59 204.569 113.546 226.389 116.019 231.259C129.898 223.911 155.454 197.89 164.596 185.268C169.953 177.87 185.142 165.402 195.483 162.544C195.483 162.544 208.546 161.592 230.316 173.294C221.669 148.187 203.843 92.7875 199.837 78.3184C199.837 78.3184 183.509 23.6191 170.038 24.0274Z" fill="#F57729"/>
<path d="M64.3711 168.407C64.3711 168.407 94.4422 143.091 100.598 137.753L76.4467 120.104L23.9644 141.933L64.3711 168.407ZM76.9111 119.176L101.062 137.289C105.464 131.442 127.922 97.7744 135.431 85.7356C139.519 79.1809 143.327 65.3 143.327 65.3C144.256 56.94 146.578 42.5422 146.578 42.5422C144.317 44.4801 137.12 56.0217 132.629 63.2229C130.663 66.3771 129.215 68.6985 128.929 69.0156C119.85 79.7154 108.508 87.9253 101.697 92.8552C98.7522 94.987 96.6544 96.5054 95.9533 97.3467C93.6014 100.473 80.6406 115.27 76.9111 119.176Z" fill="#068CFC"/>
<path d="M64.3711 168.407C64.3711 168.407 94.4422 143.091 100.598 137.753L76.4467 120.104L23.9644 141.933L64.3711 168.407ZM76.9111 119.176L101.062 137.289C105.464 131.442 127.922 97.7744 135.431 85.7356C139.519 79.1809 143.327 65.3 143.327 65.3C144.256 56.94 146.578 42.5422 146.578 42.5422C144.317 44.4801 137.12 56.0217 132.629 63.2229C130.663 66.3771 129.215 68.6985 128.929 69.0156C119.85 79.7154 108.508 87.9253 101.697 92.8552C98.7522 94.987 96.6544 96.5054 95.9533 97.3467C93.6014 100.473 80.6406 115.27 76.9111 119.176Z" stroke="#068CFC"/>
<path d="M23.5 142.294L22.6112 139.957C21.7451 140.286 21.1323 141.068 21.0188 141.987C20.9053 142.907 21.3098 143.814 22.0698 144.344L23.5 142.294ZM75.2564 120.198L76.9939 121.996L76.9939 121.996L75.2564 120.198ZM91.5236 102.59L93.5213 104.092L93.5213 104.092L91.5236 102.59ZM109.926 87.3432L108.55 85.2558L108.55 85.2558L109.926 87.3432ZM135.887 58.7569L138.068 59.9791L138.068 59.9791L135.887 58.7569ZM202.267 84.8022L204.677 84.1351L204.677 84.1351L202.267 84.8022ZM232.5 175.962L231.099 178.033C231.992 178.637 233.171 178.6 234.025 177.943C234.879 177.285 235.216 176.154 234.86 175.137L232.5 175.962ZM165.134 182.95L167.158 184.416L167.158 184.416L165.134 182.95ZM133.586 220.748L131.893 218.908L131.893 218.908L133.586 220.748ZM115.184 232.5L113.038 233.783C113.607 234.734 114.734 235.198 115.808 234.921L115.184 232.5ZM77.3931 177.232L76.014 179.318L76.014 179.318L77.3931 177.232ZM63.3618 166.053C62.2739 166.903 62.0812 168.474 62.9314 169.562C63.7815 170.65 65.3527 170.843 66.4406 169.992L63.3618 166.053ZM104.007 133.083L102.017 131.57L102.017 131.57L104.007 133.083ZM142.947 63.9771L145.421 64.3363L145.421 64.3363L142.947 63.9771ZM24.3888 144.63C32.8995 141.393 45.1408 136.558 55.6243 132.179C60.8635 129.991 65.6848 127.907 69.3889 126.19C71.2382 125.332 72.8352 124.553 74.0765 123.89C75.2099 123.285 76.3407 122.627 76.9939 121.996L73.5189 118.401C73.5303 118.39 73.4155 118.493 73.055 118.719C72.7261 118.926 72.2827 119.18 71.7207 119.48C70.5984 120.08 69.0972 120.813 67.2853 121.654C63.6668 123.332 58.9133 125.387 53.6971 127.565C43.27 131.921 31.079 136.736 22.6112 139.957L24.3888 144.63ZM76.9939 121.996C80.6127 118.498 89.6714 109.21 93.5213 104.092L89.5258 101.087C85.9346 105.86 77.1297 114.91 73.5189 118.401L76.9939 121.996ZM93.5213 104.092C97.653 98.6005 104.007 94.2379 111.302 89.4307L108.55 85.2558C101.386 89.9774 94.2654 94.7865 89.5258 101.087L93.5213 104.092ZM111.302 89.4307C115.203 86.8597 120.806 81.4099 125.871 75.7971C130.95 70.1702 135.789 64.045 138.068 59.9791L133.706 57.5347C131.712 61.0919 127.186 66.8777 122.16 72.4471C117.12 78.0306 111.879 83.0623 108.55 85.2558L111.302 89.4307ZM138.068 59.9791C140.193 56.1867 145.171 47.5087 151.15 39.8024C154.144 35.9444 157.322 32.4179 160.452 29.8783C163.642 27.2904 166.449 26 168.748 26V21C164.721 21 160.792 23.1638 157.302 25.9955C153.752 28.8754 150.306 32.7339 147.2 36.7372C140.98 44.7536 135.853 53.704 133.706 57.5347L138.068 59.9791ZM168.748 26C169.565 26 170.62 26.3322 171.943 27.2577C173.262 28.18 174.699 29.5908 176.222 31.4774C179.268 35.2511 182.402 40.6086 185.417 46.7902C191.436 59.1304 196.767 74.3067 199.858 85.4693L204.677 84.1351C201.523 72.746 196.092 57.2712 189.911 44.5983C186.826 38.2732 183.501 32.5336 180.113 28.3369C178.419 26.2382 176.646 24.4454 174.809 23.1605C172.976 21.8787 170.931 21 168.748 21V26ZM199.858 85.4693C204.88 103.61 222.155 153.951 230.14 176.787L234.86 175.137C226.852 152.234 209.644 102.078 204.677 84.1351L199.858 85.4693ZM233.901 173.891C230.533 171.613 224.958 168.214 219.098 165.374C213.358 162.592 206.903 160.121 201.939 160.121V165.121C205.65 165.121 211.189 167.097 216.918 169.874C222.527 172.592 227.895 175.864 231.099 178.033L233.901 173.891ZM201.939 160.121C196.004 160.121 188.705 162.183 181.763 165.805C174.798 169.44 167.981 174.756 163.109 181.483L167.158 184.416C171.488 178.438 177.651 173.591 184.077 170.238C190.527 166.872 197.029 165.121 201.939 165.121V160.121ZM163.109 181.483C153.929 194.159 138.603 212.732 131.893 218.908L135.28 222.587C142.372 216.058 157.936 197.151 167.158 184.416L163.109 181.483ZM131.893 218.908C125.1 225.162 118.894 228.962 114.56 230.079L115.808 234.921C121.332 233.497 128.272 229.038 135.28 222.587L131.893 218.908ZM117.33 231.217C115.248 227.735 113.032 223.357 110.538 218.444C108.06 213.566 105.332 208.209 102.275 202.904C96.1912 192.343 88.6415 181.674 78.7721 175.147L76.014 179.318C84.8757 185.178 91.9495 194.997 97.9424 205.399C100.924 210.575 103.597 215.82 106.08 220.708C108.545 225.563 110.848 230.119 113.038 233.783L117.33 231.217ZM78.7721 175.147C61.6925 163.852 35.5488 147.65 24.9302 140.243L22.0698 144.344C32.7017 151.76 59.2328 168.22 76.014 179.318L78.7721 175.147ZM66.4406 169.992C71.6154 165.948 79.7824 159.346 87.4884 152.664C95.1253 146.042 102.528 139.156 105.996 134.597L102.017 131.57C98.9128 135.65 91.9114 142.211 84.2128 148.886C76.5833 155.502 68.4837 162.05 63.3618 166.053L66.4406 169.992ZM105.996 134.597C110.126 129.168 119.169 116.946 127.563 103.488C131.76 96.7593 135.816 89.6875 139.019 82.9781C142.204 76.3052 144.623 69.8313 145.421 64.3363L140.473 63.618C139.783 68.3688 137.618 74.3061 134.507 80.8242C131.413 87.3058 127.46 94.205 123.321 100.842C115.043 114.114 106.103 126.199 102.017 131.57L105.996 134.597ZM145.421 64.3363C148.191 45.258 153.16 35.5027 159.559 30.7232L156.567 26.7173C148.507 32.7372 143.289 44.2229 140.473 63.618L145.421 64.3363ZM74.2657 120.805L98.189 138.375L101.149 134.345L77.2254 116.775L74.2657 120.805Z" fill="#333333"/>
</svg>
